<?xml version="1.0" encoding="utf-8"?>
<!-- Generator: Adobe Illustrator 27.7.0, SVG Export Plug-In . SVG Version: 6.00 Build 0)  -->
<svg version="1.1" xmlns="http://www.w3.org/2000/svg" xmlns:xlink="http://www.w3.org/1999/xlink" x="0px" y="0px"
	 viewBox="0 0 500 500" style="enable-background:new 0 0 500 500;" xml:space="preserve">
<g id="Floor">
	<ellipse id="Floor_3_" style="fill:#F0F0F0;" cx="249.81" cy="348.83" rx="231.54" ry="133.68"/>
</g>
<g id="Shadows">
	<path id="Shadow_1_" style="fill:#E0E0E0;" d="M156.7,430.37l-8.68-5.1c-1.35-0.78-3.54-0.78-4.89,0l-13.47,7.78
		c-1.35,0.78-3.54,0.78-4.89,0l-45.6-26.33c-1.35-0.78-1.35-2.04,0-2.82l151.17-87.28c1.35-0.78,3.54-0.78,4.89,0l45.6,26.33
		c1.35,0.78,1.36,2.05,0.01,2.84l-13.49,7.93c-1.35,0.79-1.34,2.06,0.02,2.83l8.66,4.94c1.36,0.77,1.36,2.03,0.01,2.81
		l-114.45,66.08C160.24,431.15,158.05,431.15,156.7,430.37z"/>
	<ellipse id="Shadow" style="fill:#E0E0E0;" cx="359.67" cy="405.12" rx="64.99" ry="37.52"/>
</g>
<g id="Plant">
	<g id="Plants_10_">
		<g id="XMLID_4039_">
			<g id="XMLID_4042_">
				<path id="XMLID_4044_" style="fill:#3786DE;" d="M121.43,365.34c0,0,1.64-18.48-4.46-34.33c-6.1-15.86-16.62-27.14-27.93-30.41
					c-11.3-3.27-22.74,5.41-11.94,15.21c10.81,9.8,31.13,21.72,35.62,51L121.43,365.34z"/>
				<path id="XMLID_4043_" style="opacity:0.15;" d="M121.43,365.34c0,0,1.64-18.48-4.46-34.33c-6.1-15.86-16.62-27.14-27.93-30.41
					c-11.3-3.27-22.74,5.41-11.94,15.21c10.81,9.8,31.13,21.72,35.62,51L121.43,365.34z"/>
			</g>
			<g id="XMLID_4040_">
				<path id="XMLID_4041_" style="fill:#FFFFFF;" d="M119.02,359.96c0.04,0,0.09,0,0.13-0.01c0.34-0.06,0.56-0.39,0.5-0.73
					c-6.01-32.42-26.54-49.66-36.55-54.25c-0.31-0.15-0.69,0-0.83,0.31c-0.14,0.32-0.01,0.69,0.31,0.83
					c9.81,4.49,29.93,21.43,35.84,53.34C118.47,359.75,118.73,359.96,119.02,359.96z"/>
			</g>
		</g>
		<g id="XMLID_4022_">
			<g id="XMLID_4036_">
				<g id="XMLID_4037_">
					<path id="XMLID_4038_" style="fill:#3786DE;" d="M122.41,395.42c-0.01-0.93-0.01-1.85,0.01-2.78c0.07-2.59,0.35-5.2,1.07-7.69
						c0.71-2.45,2.38-4.4,2.96-6.84c0.61-2.55-0.43-5.76-1.91-7.85c-1.53-2.15-3.77-3.88-4.59-6.39c-1.04-3.15,0.92-6.33,0.07-9.24
						c-0.82-2.81-4.06-4.71-6.7-5.42c-3.52-0.95-7.27-0.71-10.82-1.54c-4.6-1.08-8.57-3.87-12.74-6.09
						c-4.17-2.22-9.04-3.92-13.56-2.58c-2.93,0.87-5.45,3.02-6.77,5.78c-1.32,2.76-1.4,6.08-0.23,8.9c1.01,2.45,2.88,4.44,4.24,6.72
						c1.33,2.22,2.1,4.88,1.06,7.36c-0.76,1.84-2.13,3.24-2.76,5.15c-1.62,4.91-0.72,9.32,4.18,11.83
						c5.11,2.62,13.17,0.65,15.7,7.08c0.96,2.44,1,5.14,1.52,7.71c1.04,5.12,4.12,9.8,8.41,12.78c4.68,3.25,12.05,5.16,17.41,2.55
						c4.36-2.12,3.48-5.54,3.62-9.83C122.67,401.82,122.46,398.62,122.41,395.42z"/>
				</g>
			</g>
			<g id="XMLID_4023_">
				<path id="XMLID_4035_" style="fill:#FFFFFF;" d="M85.02,373.84c0.11,0.02,0.24,0,0.35-0.05c0.12-0.06,12.39-5.73,26.61,1.92
					c0.29,0.15,0.64,0.05,0.8-0.24c0.15-0.29,0.05-0.65-0.24-0.8c-14.76-7.94-27.54-2.01-27.67-1.95c-0.29,0.14-0.42,0.49-0.28,0.79
					C84.67,373.69,84.84,373.81,85.02,373.84z"/>
			</g>
			<g>
				<path style="fill:#FFFFFF;" d="M123.23,405.11c-0.3,0.01-0.55-0.23-0.56-0.53c-1.02-24.73-25.85-50.89-42.49-58.03
					c-0.28-0.12-0.41-0.44-0.29-0.72c0.12-0.28,0.44-0.41,0.72-0.29c16.91,7.25,42.13,33.84,43.16,59c0.01,0.3-0.22,0.56-0.53,0.57
					C123.24,405.11,123.24,405.11,123.23,405.11z"/>
			</g>
		</g>
	</g>
</g>
<g id="Gears_1_">
	<g id="Gears">
		<g id="XMLID_796_">
			<path id="XMLID_816_" style="fill:#3786DE;" d="M158.02,87.45l-7.67-4.4l0,0c-0.21-0.12-0.48-0.13-0.79,0.01l-9.07,4.09
				c-0.64,0.29-1.3-0.03-1.51-0.7c-0.53-1.67,1.44-1.66,0.63-2.99c-0.37-0.6-0.45-1.57-0.14-2.2l6.05-12.19
				c0.31-0.63,0.07-1.42-0.54-1.78l-9.21-5.29c-0.61-0.35-1.42-0.16-1.81,0.42l-7.53,11.33c-0.39,0.58-1.27,1-1.97,0.98
				c-0.85-0.02-1.73,0.02-2.63,0.12l2.65-6.78l-7.69-4.41v0c-0.22-0.12-0.52-0.1-0.82,0.07l-10.19,5.88
				c-0.61,0.35-1.15,1.2-1.22,1.9l-1.02,11.34c-0.06,0.7-0.54,1.64-1.06,2.12c-1.98,1.83-3.88,3.84-5.66,5.99
				c-0.45,0.54-1.34,0.8-2,0.57l-6.54-2.28c-0.66-0.23-1.49,0.07-1.84,0.68l-7.49,12.98c-0.35,0.61-0.2,1.47,0.33,1.93l5.25,4.52
				c0.53,0.46,0.75,1.36,0.51,2.02c-0.97,2.62-1.77,5.27-2.36,7.9c-0.15,0.69-0.73,1.57-1.3,1.98l-9.31,6.55
				c-0.57,0.4-1.04,1.3-1.04,2v11.77c0,0.36,0.14,0.62,0.36,0.76l0,0l7.67,4.4l4.8-5.03c0.29,0.6,0.59,1.19,0.93,1.73
				c0.37,0.6,0.45,1.57,0.14,2.2l-6.05,12.19c-0.31,0.63-0.07,1.42,0.54,1.78l9.21,5.29c0.61,0.35,1.42,0.16,1.81-0.42l4.88-12.84
				c0.39-0.58,1.27-1,1.97-0.98c1.56,0.04,3.2-0.12,4.91-0.5c0.69-0.15,1.29,0.26,1.36,0.96l0.99,9.9c0.03,0.34,0.18,0.58,0.39,0.69
				l0,0l7.66,4.4l6.02-8.84c0.61-0.35,1.15-1.2,1.22-1.9l-1.63-12.85c0.06-0.7,0.66-1.44,1.3-1.72c2.91-1.22,5.85-3.33,7.92-5.55
				c0.48-0.52,1.37-0.77,2.03-0.54l4.02,1.41c0.66,0.23,1.48-0.07,1.84-0.68l7.49-12.98c0.35-0.61,0.2-1.47-0.33-1.93l-3.45-2.97
				c-0.53-0.46-0.75-1.36-0.56-2.04c0.83-2.9,1.01-6.7,0.94-9.4c-0.02-0.7,0.4-1.6,0.98-2l11.96-5.05c0.57-0.4,1.04-1.3,1.04-2
				l4.45-5.33L158.02,87.45z M113.51,134.09c-9.51,5.49-15.42,1.6-15.42-9.38c0-10.98,7.86-24.43,17.37-29.92
				c9.51-5.49,15.27-1.5,15.27,9.48C130.73,115.25,123.02,128.6,113.51,134.09z"/>
			<path id="XMLID_813_" style="opacity:0.2;fill:#FFFFFF;" d="M158.02,87.45l-7.67-4.4l0,0c-0.21-0.12-0.48-0.13-0.79,0.01
				l-9.07,4.09c-0.64,0.29-1.3-0.03-1.51-0.7c-0.53-1.67,1.44-1.66,0.63-2.99c-0.37-0.6-0.45-1.57-0.14-2.2l6.05-12.19
				c0.31-0.63,0.07-1.42-0.54-1.78l-9.21-5.29c-0.61-0.35-1.42-0.16-1.81,0.42l-7.53,11.33c-0.39,0.58-1.27,1-1.97,0.98
				c-0.85-0.02-1.73,0.02-2.63,0.12l2.65-6.78l-7.69-4.41v0c-0.22-0.12-0.52-0.1-0.82,0.07l-10.19,5.88
				c-0.61,0.35-1.15,1.2-1.22,1.9l-1.02,11.34c-0.06,0.7-0.54,1.64-1.06,2.12c-1.98,1.83-3.88,3.84-5.66,5.99
				c-0.45,0.54-1.34,0.8-2,0.57l-6.54-2.28c-0.66-0.23-1.49,0.07-1.84,0.68l-7.49,12.98c-0.35,0.61-0.2,1.47,0.33,1.93l5.25,4.52
				c0.53,0.46,0.75,1.36,0.51,2.02c-0.97,2.62-1.77,5.27-2.36,7.9c-0.15,0.69-0.73,1.57-1.3,1.98l-9.31,6.55
				c-0.57,0.4-1.04,1.3-1.04,2v11.77c0,0.36,0.14,0.62,0.36,0.76l0,0l7.67,4.4l4.8-5.03c0.29,0.6,0.59,1.19,0.93,1.73
				c0.37,0.6,0.45,1.57,0.14,2.2l-6.05,12.19c-0.31,0.63-0.07,1.42,0.54,1.78l9.21,5.29c0.61,0.35,1.42,0.16,1.81-0.42l4.88-12.84
				c0.39-0.58,1.27-1,1.97-0.98c1.56,0.04,3.2-0.12,4.91-0.5c0.69-0.15,1.29,0.26,1.36,0.96l0.99,9.9c0.03,0.34,0.18,0.58,0.39,0.69
				l0,0l7.66,4.4l6.02-8.84c0.61-0.35,1.15-1.2,1.22-1.9l-1.63-12.85c0.06-0.7,0.66-1.44,1.3-1.72c2.91-1.22,5.85-3.33,7.92-5.55
				c0.48-0.52,1.37-0.77,2.03-0.54l4.02,1.41c0.66,0.23,1.48-0.07,1.84-0.68l7.49-12.98c0.35-0.61,0.2-1.47-0.33-1.93l-3.45-2.97
				c-0.53-0.46-0.75-1.36-0.56-2.04c0.83-2.9,1.01-6.7,0.94-9.4c-0.02-0.7,0.4-1.6,0.98-2l11.96-5.05c0.57-0.4,1.04-1.3,1.04-2
				l4.45-5.33L158.02,87.45z M113.51,134.09c-9.51,5.49-15.42,1.6-15.42-9.38c0-10.98,7.86-24.43,17.37-29.92
				c9.51-5.49,15.27-1.5,15.27,9.48C130.73,115.25,123.02,128.6,113.51,134.09z"/>
			<path style="opacity:0.1;" d="M114.16,148.9l-14.85-6.22l-12.66-6.53l-5.35,9.55l2.56-3.97c0.29,0.6,0.59,1.19,0.93,1.73
				c0.37,0.6,0.45,1.57,0.14,2.2l-6.05,12.19c-0.31,0.63-0.07,1.42,0.54,1.78l9.21,5.29c0.61,0.35,1.42,0.16,1.81-0.42l4.88-12.84
				c0.39-0.58,1.27-1,1.97-0.98c1.56,0.04,3.2-0.12,4.91-0.5c0.69-0.15,1.29,0.26,1.36,0.96l0.99,9.9c0.03,0.34,0.18,0.58,0.39,0.69
				l0,0l7.66,4.4l2.84-4.18L114.16,148.9z"/>
			<path style="opacity:0.1;" d="M137.85,112.89V93.2l-8.32-7.04l-3.93,6.65c3.29,1.31,5.12,5.27,5.12,11.46
				c0,10.98-7.71,24.33-17.22,29.82c-5.57,3.22-9.9,3.19-12.53,0.42l-2.85,4.82c0,0,13.97,4.32,20.39,1.63
				C124.94,138.27,137.85,112.89,137.85,112.89z"/>
			<g id="XMLID_807_">
				<path id="XMLID_812_" style="fill:#3786DE;" d="M143.51,73.11l2-4.03c0.31-0.63,0.07-1.42-0.54-1.78l-9.21-5.29
					c-0.61-0.35-1.42-0.16-1.81,0.42l-7.53,11.33c-0.12,0.18-0.3,0.34-0.5,0.48L137,80.62L143.51,73.11z"/>
				<path id="XMLID_811_" style="fill:#3786DE;" d="M82.08,120.51c-0.22,0.31-0.47,0.59-0.72,0.77l-9.31,6.55
					c-0.23,0.16-0.44,0.42-0.61,0.7l8.33,4.79l12.36-7.03L82.08,120.51z"/>
				<path id="XMLID_810_" style="fill:#3786DE;" d="M87.74,89.19c-0.52,0.02-1.05,0.3-1.31,0.76l-7.49,12.98
					c-0.16,0.28-0.21,0.62-0.17,0.95l9.11,5.23l10.25-13.87L87.74,89.19z"/>
				<path id="XMLID_809_" style="fill:#3786DE;" d="M104.75,70.86l10.64,6.12l9.08-5.24v-3.66l-7.69-4.41v0
					c-0.22-0.12-0.52-0.1-0.82,0.07l-10.19,5.88C105.35,69.88,104.97,70.36,104.75,70.86z"/>
				<path id="XMLID_808_" style="fill:#3786DE;" d="M158.02,87.45L158.02,87.45c-0.2-0.13-0.49-0.14-0.81,0.01l-9.07,4.09
					c-0.64,0.29-1.3-0.03-1.51-0.7c-0.36-1.14-2.52-4.2-2.33-5.42l5.25-2.37c0.31-0.14,0.58-0.13,0.79-0.01v-0.01L158.02,87.45z"/>
			</g>
			<g id="XMLID_800_" style="opacity:0.7;">
				<path id="XMLID_806_" style="fill:#FFFFFF;stroke:#FFFFFF;stroke-miterlimit:10;" d="M143.51,73.11l2-4.03
					c0.31-0.63,0.07-1.42-0.54-1.78l-9.21-5.29c-0.61-0.35-1.42-0.16-1.81,0.42l-7.53,11.33c-0.12,0.18-0.3,0.34-0.5,0.48L137,80.62
					L143.51,73.11z"/>
				<path id="XMLID_804_" style="fill:#FFFFFF;stroke:#FFFFFF;stroke-miterlimit:10;" d="M82.08,120.51
					c-0.22,0.31-0.47,0.59-0.72,0.77l-9.31,6.55c-0.23,0.16-0.44,0.42-0.61,0.7l8.33,4.79l12.36-7.03L82.08,120.51z"/>
				<path id="XMLID_803_" style="fill:#FFFFFF;stroke:#FFFFFF;stroke-miterlimit:10;" d="M87.74,89.19
					c-0.52,0.02-1.05,0.3-1.31,0.76l-7.49,12.98c-0.16,0.28-0.21,0.62-0.17,0.95l9.11,5.23l10.25-13.87L87.74,89.19z"/>
				<path id="XMLID_802_" style="fill:#FFFFFF;stroke:#FFFFFF;stroke-miterlimit:10;" d="M104.75,70.86l10.64,6.12l9.08-5.24v-3.66
					l-7.69-4.41v0c-0.22-0.12-0.52-0.1-0.82,0.07l-10.19,5.88C105.35,69.88,104.97,70.36,104.75,70.86z"/>
				<path id="XMLID_801_" style="fill:#FFFFFF;stroke:#FFFFFF;stroke-miterlimit:10;" d="M158.02,87.45L158.02,87.45
					c-0.2-0.13-0.49-0.14-0.81,0.01l-9.07,4.09c-0.64,0.29-1.3-0.03-1.51-0.7c-0.36-1.14-2.54-4.3-2.33-5.42l5.25-2.37
					c0.31-0.14,0.58-0.13,0.79-0.01v-0.01L158.02,87.45z"/>
			</g>
			<path id="XMLID_797_" style="fill:#3786DE;" d="M158.38,99.98V88.21c0-0.7-0.52-1.04-1.16-0.75l-9.07,4.09
				c-0.64,0.29-1.3-0.03-1.51-0.7c-0.53-1.67-1.21-3.17-2.02-4.5c-0.37-0.6-0.45-1.57-0.14-2.2l6.05-12.19
				c0.31-0.63,0.07-1.42-0.54-1.78l-6.56-3.79c-0.61-0.35-1.42-0.16-1.81,0.42l-7.53,11.33c-0.39,0.58-1.27,1-1.97,0.98
				c-1.56-0.04-3.2,0.12-4.91,0.5c-0.69,0.15-1.29-0.26-1.36-0.96l-0.99-9.9c-0.07-0.7-0.62-0.98-1.23-0.63l-10.19,5.88
				c-0.61,0.35-1.15,1.2-1.22,1.9l-1.02,11.34c-0.06,0.7-0.54,1.64-1.06,2.12c-1.98,1.83-3.88,3.84-5.66,5.99
				c-0.45,0.54-1.34,0.8-2,0.57l-6.54-2.28c-0.66-0.23-1.49,0.07-1.84,0.68l-7.49,12.98c-0.35,0.61-0.2,1.47,0.33,1.93l5.25,4.52
				c0.53,0.46,0.75,1.36,0.51,2.02c-0.97,2.62-1.77,5.27-2.36,7.9c-0.15,0.69-0.73,1.57-1.3,1.98l-9.31,6.55
				c-0.57,0.4-1.04,1.3-1.04,2v11.77c0,0.7,0.52,1.04,1.16,0.75l9.07-4.09c0.64-0.29,1.3,0.03,1.51,0.7
				c0.53,1.67,1.21,3.17,2.02,4.5c0.37,0.6,0.45,1.57,0.14,2.2l-6.05,12.19c-0.31,0.63-0.07,1.42,0.54,1.77l6.56,3.79
				c0.61,0.35,1.42,0.16,1.81-0.42l7.53-11.33c0.39-0.58,1.27-1,1.97-0.98c1.56,0.04,3.2-0.12,4.91-0.5
				c0.69-0.15,1.29,0.26,1.36,0.96l0.99,9.9c0.07,0.7,0.62,0.98,1.23,0.63l10.19-5.88c0.61-0.35,1.15-1.2,1.22-1.9l1.02-11.34
				c0.06-0.7,0.54-1.64,1.06-2.12c1.98-1.83,3.88-3.84,5.66-5.99c0.45-0.54,1.34-0.8,2-0.57l6.54,2.28
				c0.66,0.23,1.49-0.07,1.84-0.68l7.49-12.98c0.35-0.61,0.2-1.47-0.33-1.93l-5.25-4.52c-0.53-0.46-0.75-1.36-0.51-2.02
				c0.97-2.62,1.77-5.27,2.36-7.9c0.15-0.69,0.73-1.57,1.3-1.98l9.31-6.55C157.91,101.58,158.38,100.68,158.38,99.98z
				 M118.53,136.98c-9.51,5.49-17.22,1.04-17.22-9.94c0-10.98,7.71-24.33,17.22-29.82c9.51-5.49,17.22-1.04,17.22,9.94
				C135.74,118.14,128.03,131.49,118.53,136.98z"/>
			<path id="XMLID_490_" style="opacity:0.55;fill:#FFFFFF;stroke:#FFFFFF;stroke-miterlimit:10;" d="M158.38,99.98V88.21
				c0-0.7-0.52-1.04-1.16-0.75l-9.07,4.09c-0.64,0.29-1.3-0.03-1.51-0.7c-0.53-1.67-1.21-3.17-2.02-4.5
				c-0.37-0.6-0.45-1.57-0.14-2.2l6.05-12.19c0.31-0.63,0.07-1.42-0.54-1.78l-6.56-3.79c-0.61-0.35-1.42-0.16-1.81,0.42l-7.53,11.33
				c-0.39,0.58-1.27,1-1.97,0.98c-1.56-0.04-3.2,0.12-4.91,0.5c-0.69,0.15-1.29-0.26-1.36-0.96l-0.99-9.9
				c-0.07-0.7-0.62-0.98-1.23-0.63l-10.19,5.88c-0.61,0.35-1.15,1.2-1.22,1.9l-1.02,11.34c-0.06,0.7-0.54,1.64-1.06,2.12
				c-1.98,1.83-3.88,3.84-5.66,5.99c-0.45,0.54-1.34,0.8-2,0.57l-6.54-2.28c-0.66-0.23-1.49,0.07-1.84,0.68l-7.49,12.98
				c-0.35,0.61-0.2,1.47,0.33,1.93l5.25,4.52c0.53,0.46,0.75,1.36,0.51,2.02c-0.97,2.62-1.77,5.27-2.36,7.9
				c-0.15,0.69-0.73,1.57-1.3,1.98l-9.31,6.55c-0.57,0.4-1.04,1.3-1.04,2v11.77c0,0.7,0.52,1.04,1.16,0.75l9.07-4.09
				c0.64-0.29,1.3,0.03,1.51,0.7c0.53,1.67,1.21,3.17,2.02,4.5c0.37,0.6,0.45,1.57,0.14,2.2l-6.05,12.19
				c-0.31,0.63-0.07,1.42,0.54,1.77l6.56,3.79c0.61,0.35,1.42,0.16,1.81-0.42l7.53-11.33c0.39-0.58,1.27-1,1.97-0.98
				c1.56,0.04,3.2-0.12,4.91-0.5c0.69-0.15,1.29,0.26,1.36,0.96l0.99,9.9c0.07,0.7,0.62,0.98,1.23,0.63l10.19-5.88
				c0.61-0.35,1.15-1.2,1.22-1.9l1.02-11.34c0.06-0.7,0.54-1.64,1.06-2.12c1.98-1.83,3.88-3.84,5.66-5.99c0.45-0.54,1.34-0.8,2-0.57
				l6.54,2.28c0.66,0.23,1.49-0.07,1.84-0.68l7.49-12.98c0.35-0.61,0.2-1.47-0.33-1.93l-5.25-4.52c-0.53-0.46-0.75-1.36-0.51-2.02
				c0.97-2.62,1.77-5.27,2.36-7.9c0.15-0.69,0.73-1.57,1.3-1.98l9.31-6.55C157.91,101.58,158.38,100.68,158.38,99.98z
				 M118.53,136.98c-9.51,5.49-17.22,1.04-17.22-9.94c0-10.98,7.71-24.33,17.22-29.82c9.51-5.49,17.22-1.04,17.22,9.94
				C135.74,118.14,128.03,131.49,118.53,136.98z"/>
		</g>
		<g id="XMLID_733_">
			<path id="XMLID_774_" style="fill:#3786DE;" d="M107.84,179.69L107.84,179.69c-0.24-0.14-0.56-0.12-0.89,0.09l-4.29,2.82
				c-0.59,0.39-1.32,0.19-1.72-0.39c-0.26-0.37-0.54-0.71-0.84-1.02c-0.48-0.51-0.75-1.38-0.5-2.04l6.81-4.32l-5.09-2.94l0,0
				c-0.1-0.06-0.21-0.11-0.34-0.14l-3.23-0.72c-0.69-0.15-1.51,0.23-1.83,0.85l-3.04,5.79c-0.33,0.62-1.16,1.21-1.84,1.38
				c-0.06,0.02-0.13,0.04-0.19,0.05c0.19-0.55,0.27-1.35,0.27-1.35l-5.1-2.94l0,0.01c-0.27-0.16-0.62-0.13-0.96,0.13l-4.84,3.81
				c-0.55,0.43-0.96,1.35-0.92,2.06l0.29,4.61c0.04,0.7-0.3,1.69-0.75,2.23c-0.79,0.95-1.54,1.95-2.25,2.98
				c-0.4,0.58-1.27,1.03-1.97,1l-3.11-0.15c-0.7-0.03-1.5,0.46-1.79,1.1l-2.93,6.56c-0.26,0.59-0.04,1.26,0.5,1.58l0,0.01l3.45,1.99
				c0.11,0.28,0.15,0.6,0.08,0.89c-0.24,1.06-0.42,2.1-0.54,3.13c-0.08,0.7-0.53,1.65-1.05,2.13l-4.29,3.95
				c-0.52,0.48-0.84,1.42-0.72,2.11l0.81,4.68c0.05,0.3,0.2,0.52,0.39,0.63l-0.01,0l5.12,2.95l0.07-5.86
				c0.59-0.39,1.32-0.19,1.72,0.39c0.26,0.37,0.54,0.71,0.84,1.02c0.48,0.51,0.75,1.38,0.5,2.04l-2.19,5.91
				c-0.19,0.52,0,1.04,0.43,1.31l0,0l5.11,2.95l1.39-3.81l1.98-4.91c0.33-0.62,1.16-1.21,1.84-1.38c0.65-0.17,1.32-0.38,1.99-0.66
				c0.65-0.26,1.33,0.03,1.53,0.7l1.09,3.63c0.08,0.27,0.23,0.46,0.42,0.57l0,0l5.13,2.96l-0.9-5.67l1.57-1.23
				c0.55-0.43,0.96-1.35,0.92-2.06l-0.29-4.61c-0.04-0.7,0.3-1.69,0.75-2.23c0.79-0.95,1.99-1.46,2.7-2.49
				c0.4-0.58,0.82-1.52,1.52-1.49l3.11,0.15c0.7,0.03,1.5-0.46,1.79-1.1l2.93-6.56c0.29-0.64-0.01-1.38-0.65-1.66l-2.52-1.07
				c-0.65-0.28-1.02-1.05-0.86-1.73c0.24-1.06,0.42-2.1,0.54-3.13c0.08-0.7,0.53-1.65,1.05-2.13l4.29-3.95
				c0.37-0.34,0.63-0.91,0.71-1.47l3.9-3.04L107.84,179.69z M88.35,209.95c-5.25,4.13-10.28,3-11.23-2.51
				c-0.95-5.51,3.35-12.52,8.6-16.65c5.25-4.13,9.47-3.81,10.41,1.7S93.6,205.82,88.35,209.95z"/>
			<path id="XMLID_769_" style="opacity:0.2;fill:#FFFFFF;" d="M107.84,179.69L107.84,179.69c-0.24-0.14-0.56-0.12-0.89,0.09
				l-4.29,2.82c-0.59,0.39-1.32,0.19-1.72-0.39c-0.26-0.37-0.54-0.71-0.84-1.02c-0.48-0.51-0.75-1.38-0.5-2.04l6.81-4.32l-5.09-2.94
				l0,0c-0.1-0.06-0.21-0.11-0.34-0.14l-3.23-0.72c-0.69-0.15-1.51,0.23-1.83,0.85l-3.04,5.79c-0.33,0.62-1.16,1.21-1.84,1.38
				c-0.06,0.02-0.13,0.04-0.19,0.05c0.19-0.55,0.27-1.35,0.27-1.35l-5.1-2.94l0,0.01c-0.27-0.16-0.62-0.13-0.96,0.13l-4.84,3.81
				c-0.55,0.43-0.96,1.35-0.92,2.06l0.29,4.61c0.04,0.7-0.3,1.69-0.75,2.23c-0.79,0.95-1.54,1.95-2.25,2.98
				c-0.4,0.58-1.27,1.03-1.97,1l-3.11-0.15c-0.7-0.03-1.5,0.46-1.79,1.1l-2.93,6.56c-0.26,0.59-0.04,1.26,0.5,1.58l0,0.01l3.45,1.99
				c0.11,0.28,0.15,0.6,0.08,0.89c-0.24,1.06-0.42,2.1-0.54,3.13c-0.08,0.7-0.53,1.65-1.05,2.13l-4.29,3.95
				c-0.52,0.48-0.84,1.42-0.72,2.11l0.81,4.68c0.05,0.3,0.2,0.52,0.39,0.63l-0.01,0l5.12,2.95l0.07-5.86
				c0.59-0.39,1.32-0.19,1.72,0.39c0.26,0.37,0.54,0.71,0.84,1.02c0.48,0.51,0.75,1.38,0.5,2.04l-2.19,5.91
				c-0.19,0.52,0,1.04,0.43,1.31l0,0l5.11,2.95l1.39-3.81l1.98-4.91c0.33-0.62,1.16-1.21,1.84-1.38c0.65-0.17,1.32-0.38,1.99-0.66
				c0.65-0.26,1.33,0.03,1.53,0.7l1.09,3.63c0.08,0.27,0.23,0.46,0.42,0.57l0,0l5.13,2.96l-0.9-5.67l1.57-1.23
				c0.55-0.43,0.96-1.35,0.92-2.06l-0.29-4.61c-0.04-0.7,0.3-1.69,0.75-2.23c0.79-0.95,1.99-1.46,2.7-2.49
				c0.4-0.58,0.82-1.52,1.52-1.49l3.11,0.15c0.7,0.03,1.5-0.46,1.79-1.1l2.93-6.56c0.29-0.64-0.01-1.38-0.65-1.66l-2.52-1.07
				c-0.65-0.28-1.02-1.05-0.86-1.73c0.24-1.06,0.42-2.1,0.54-3.13c0.08-0.7,0.53-1.65,1.05-2.13l4.29-3.95
				c0.37-0.34,0.63-0.91,0.71-1.47l3.9-3.04L107.84,179.69z M88.35,209.95c-5.25,4.13-10.28,3-11.23-2.51
				c-0.95-5.51,3.35-12.52,8.6-16.65c5.25-4.13,9.47-3.81,10.41,1.7S93.6,205.82,88.35,209.95z"/>
			<path style="opacity:0.1;" d="M92.19,220.74l-8.75-0.89l-8.12-4.69c0,0-0.83,1.77-1.88,4c0.28,0.5,0.4,1.13,0.21,1.64l-2.19,5.91
				c-0.19,0.52,0,1.04,0.43,1.31l0,0l5.11,2.95l1.39-3.81l1.98-4.91c0.33-0.62,1.16-1.21,1.84-1.38c0.65-0.17,1.32-0.38,1.99-0.66
				c0.65-0.26,1.33,0.03,1.53,0.7l1.09,3.63c0.08,0.27,0.23,0.46,0.42,0.57l0,0l5.13,2.96l-0.9-5.67l0.98-0.77L92.19,220.74z"/>
			<path style="opacity:0.1;" d="M101.96,189.36l-6.33-3.07l-1.47,2.41c0.97,0.71,1.66,1.96,1.97,3.8
				c0.95,5.51-2.54,13.33-7.79,17.46c-3.14,2.47-6.2,3.05-8.36,1.94l-0.56,0.92c0,0,3.61,5.48,8.08,4.46
				c1.88-0.43,4.09-1.58,6.18-3.16c0.07-0.64,0.36-1.38,0.73-1.83c0.79-0.95,1.99-1.46,2.7-2.49c0.4-0.58,0.82-1.52,1.52-1.49
				l0.47,0.02c0.53-0.83,0.98-1.69,1.31-2.55C102.5,200.36,101.96,189.36,101.96,189.36z"/>
			<g id="XMLID_760_">
				<path id="XMLID_768_" style="fill:#3786DE;" d="M69.19,208.91l-4.24,3.9c-0.31,0.29-0.54,0.75-0.65,1.22l6.3,3.64l0-0.34
					c0.59-0.39,1.32-0.19,1.72,0.39c0,0,0,0,0.01,0.01l6.07-3.51L69.19,208.91z"/>
				<path id="XMLID_767_" style="fill:#3786DE;" d="M80,197.1c0.48-0.74,1-1.46,1.56-2.16l-6.05-3.49c-0.3,0.12-0.61,0.2-0.89,0.19
					l-3.11-0.15c-0.44-0.02-0.92,0.17-1.29,0.47l9.31,5.38L80,197.1z"/>
				<path id="XMLID_763_" style="fill:#3786DE;" d="M112.92,182.62c-0.24-0.14-0.55-0.11-0.87,0.1l-4.29,2.82
					c-0.58,0.38-1.31,0.19-1.72-0.39c-0.26-0.37-0.53-0.71-0.84-1.03c-0.48-0.51-0.75-1.38-0.5-2.04l0.41-1.09l1.84-1.21
					c0.33-0.21,0.65-0.23,0.89-0.08v-0.01L112.92,182.62z"/>
				<path id="XMLID_762_" style="fill:#3786DE;" d="M100.25,181.36c-0.05-0.06-0.09-0.12-0.14-0.17c-0.48-0.51-0.75-1.38-0.5-2.04
					l6.81-4.32l-5.09-2.94l0,0c-0.1-0.06-0.21-0.11-0.34-0.14l-3.23-0.72c-0.69-0.15-1.51,0.23-1.83,0.85l-3.04,5.79
					c-0.15,0.28-0.4,0.55-0.69,0.78l6.87,3.96L100.25,181.36z"/>
				<path id="XMLID_761_" style="fill:#3786DE;" d="M79.43,180.03l6.31,3.64l5.18-4.75c0.15-0.53,0.21-1.16,0.21-1.16l-5.1-2.94
					l0,0.01c-0.27-0.16-0.62-0.13-0.96,0.13l-4.84,3.81C79.87,179.05,79.59,179.54,79.43,180.03z"/>
			</g>
			<g id="XMLID_737_" style="opacity:0.7;">
				<path id="XMLID_758_" style="fill:#FFFFFF;stroke:#FFFFFF;stroke-miterlimit:10;" d="M69.19,208.91l-4.24,3.9
					c-0.31,0.29-0.54,0.75-0.65,1.22l6.3,3.64l0-0.34c0.59-0.39,1.32-0.19,1.72,0.39c0,0,0,0,0.01,0.01l6.07-3.51L69.19,208.91z"/>
				<path id="XMLID_741_" style="fill:#FFFFFF;stroke:#FFFFFF;stroke-miterlimit:10;" d="M80,197.1c0.48-0.74,1-1.46,1.56-2.16
					l-6.05-3.49c-0.3,0.12-0.61,0.2-0.89,0.19l-3.11-0.15c-0.44-0.02-0.92,0.17-1.29,0.47l9.31,5.38L80,197.1z"/>
				<path id="XMLID_740_" style="fill:#FFFFFF;stroke:#FFFFFF;stroke-miterlimit:10;" d="M112.92,182.62
					c-0.24-0.14-0.55-0.11-0.87,0.1l-4.29,2.82c-0.58,0.38-1.31,0.19-1.72-0.39c-0.26-0.37-0.53-0.71-0.84-1.03
					c-0.48-0.51-0.75-1.38-0.5-2.04l0.41-1.09l1.84-1.21c0.33-0.21,0.65-0.23,0.89-0.08v-0.01L112.92,182.62z"/>
				<path id="XMLID_739_" style="fill:#FFFFFF;stroke:#FFFFFF;stroke-miterlimit:10;" d="M100.25,181.36
					c-0.05-0.06-0.09-0.12-0.14-0.17c-0.48-0.51-0.75-1.38-0.5-2.04l6.81-4.32l-5.09-2.94l0,0c-0.1-0.06-0.21-0.11-0.34-0.14
					l-3.23-0.72c-0.69-0.15-1.51,0.23-1.83,0.85l-3.04,5.79c-0.15,0.28-0.4,0.55-0.69,0.78l6.87,3.96L100.25,181.36z"/>
				<path id="XMLID_738_" style="fill:#FFFFFF;stroke:#FFFFFF;stroke-miterlimit:10;" d="M79.43,180.03l6.31,3.64l5.18-4.75
					c0.15-0.53,0.21-1.16,0.21-1.16l-5.1-2.94l0,0.01c-0.27-0.16-0.62-0.13-0.96,0.13l-4.84,3.81
					C79.87,179.05,79.59,179.54,79.43,180.03z"/>
			</g>
			<path id="XMLID_734_" style="fill:#3786DE;" d="M114.13,187.95l-0.81-4.68c-0.12-0.69-0.69-0.94-1.28-0.55l-4.29,2.82
				c-0.59,0.39-1.32,0.19-1.72-0.39c-0.26-0.37-0.54-0.71-0.84-1.02c-0.48-0.51-0.75-1.38-0.5-2.04l2.19-5.92
				c0.24-0.66-0.11-1.32-0.8-1.47l-3.23-0.72c-0.69-0.15-1.51,0.23-1.83,0.85l-3.04,5.79c-0.33,0.62-1.16,1.21-1.84,1.38
				c-0.65,0.17-1.32,0.38-1.99,0.66c-0.65,0.26-1.33-0.03-1.53-0.7l-1.09-3.63c-0.2-0.67-0.81-0.87-1.37-0.43l-4.84,3.81
				c-0.55,0.43-0.96,1.35-0.92,2.05l0.29,4.61c0.04,0.7-0.3,1.69-0.75,2.23c-0.79,0.95-1.54,1.95-2.25,2.98
				c-0.4,0.58-1.27,1.03-1.97,1l-3.11-0.15c-0.7-0.03-1.5,0.46-1.79,1.1l-2.93,6.56c-0.29,0.64,0.01,1.38,0.65,1.66l2.52,1.07
				c0.65,0.28,1.02,1.05,0.86,1.73c-0.24,1.06-0.42,2.1-0.54,3.13c-0.08,0.7-0.53,1.65-1.05,2.13l-4.29,3.95
				c-0.52,0.48-0.84,1.42-0.72,2.11l0.81,4.68c0.12,0.69,0.69,0.94,1.28,0.55l4.29-2.82c0.59-0.39,1.32-0.19,1.72,0.39
				c0.26,0.37,0.54,0.71,0.84,1.02c0.48,0.51,0.75,1.38,0.5,2.04l-2.19,5.91c-0.24,0.66,0.11,1.32,0.8,1.47l3.23,0.72
				c0.69,0.15,1.51-0.23,1.83-0.85l3.04-5.79c0.33-0.62,1.16-1.21,1.84-1.38c0.65-0.17,1.32-0.38,1.99-0.66
				c0.65-0.26,1.33,0.03,1.53,0.7l1.09,3.63c0.2,0.67,0.81,0.87,1.37,0.43l4.84-3.81c0.55-0.43,0.96-1.35,0.92-2.06l-0.29-4.61
				c-0.04-0.7,0.3-1.69,0.75-2.23c0.79-0.95,1.55-1.95,2.25-2.98c0.4-0.58,1.27-1.03,1.97-1l3.11,0.15c0.7,0.03,1.5-0.46,1.79-1.1
				l2.93-6.56c0.29-0.64-0.01-1.38-0.65-1.66L108.4,201c-0.65-0.28-1.02-1.05-0.86-1.73c0.24-1.06,0.42-2.1,0.54-3.13
				c0.08-0.7,0.53-1.65,1.05-2.13l4.29-3.95C113.93,189.59,114.25,188.65,114.13,187.95z M93.45,212.89
				c-5.25,4.13-10.28,3-11.22-2.51c-0.95-5.51,2.54-13.33,7.79-17.46c5.25-4.13,10.27-3,11.22,2.51
				C102.18,200.95,98.7,208.77,93.45,212.89z"/>
			<path id="XMLID_496_" style="opacity:0.55;fill:#FFFFFF;stroke:#FFFFFF;stroke-miterlimit:10;" d="M114.13,187.95l-0.81-4.68
				c-0.12-0.69-0.69-0.94-1.28-0.55l-4.29,2.82c-0.59,0.39-1.32,0.19-1.72-0.39c-0.26-0.37-0.54-0.71-0.84-1.02
				c-0.48-0.51-0.75-1.38-0.5-2.04l2.19-5.92c0.24-0.66-0.11-1.32-0.8-1.47l-3.23-0.72c-0.69-0.15-1.51,0.23-1.83,0.85l-3.04,5.79
				c-0.33,0.62-1.16,1.21-1.84,1.38c-0.65,0.17-1.32,0.38-1.99,0.66c-0.65,0.26-1.33-0.03-1.53-0.7l-1.09-3.63
				c-0.2-0.67-0.81-0.87-1.37-0.43l-4.84,3.81c-0.55,0.43-0.96,1.35-0.92,2.05l0.29,4.61c0.04,0.7-0.3,1.69-0.75,2.23
				c-0.79,0.95-1.54,1.95-2.25,2.98c-0.4,0.58-1.27,1.03-1.97,1l-3.11-0.15c-0.7-0.03-1.5,0.46-1.79,1.1l-2.93,6.56
				c-0.29,0.64,0.01,1.38,0.65,1.66l2.52,1.07c0.65,0.28,1.02,1.05,0.86,1.73c-0.24,1.06-0.42,2.1-0.54,3.13
				c-0.08,0.7-0.53,1.65-1.05,2.13l-4.29,3.95c-0.52,0.48-0.84,1.42-0.72,2.11l0.81,4.68c0.12,0.69,0.69,0.94,1.28,0.55l4.29-2.82
				c0.59-0.39,1.32-0.19,1.72,0.39c0.26,0.37,0.54,0.71,0.84,1.02c0.48,0.51,0.75,1.38,0.5,2.04l-2.19,5.91
				c-0.24,0.66,0.11,1.32,0.8,1.47l3.23,0.72c0.69,0.15,1.51-0.23,1.83-0.85l3.04-5.79c0.33-0.62,1.16-1.21,1.84-1.38
				c0.65-0.17,1.32-0.38,1.99-0.66c0.65-0.26,1.33,0.03,1.53,0.7l1.09,3.63c0.2,0.67,0.81,0.87,1.37,0.43l4.84-3.81
				c0.55-0.43,0.96-1.35,0.92-2.06l-0.29-4.61c-0.04-0.7,0.3-1.69,0.75-2.23c0.79-0.95,1.55-1.95,2.25-2.98
				c0.4-0.58,1.27-1.03,1.97-1l3.11,0.15c0.7,0.03,1.5-0.46,1.79-1.1l2.93-6.56c0.29-0.64-0.01-1.38-0.65-1.66L108.4,201
				c-0.65-0.28-1.02-1.05-0.86-1.73c0.24-1.06,0.42-2.1,0.54-3.13c0.08-0.7,0.53-1.65,1.05-2.13l4.29-3.95
				C113.93,189.59,114.25,188.65,114.13,187.95z M93.45,212.89c-5.25,4.13-10.28,3-11.22-2.51c-0.95-5.51,2.54-13.33,7.79-17.46
				c5.25-4.13,10.27-3,11.22,2.51C102.18,200.95,98.7,208.77,93.45,212.89z"/>
		</g>
	</g>
</g>
<g id="Controls_1_">
	<g id="Controls">
		<path style="fill:#3786DE;" d="M291.62,83.04l75.04-43.53c1.4-0.81,2.54-0.24,2.54,1.29s-1.14,3.41-2.54,4.22l-75.04,43.53
			c-1.4,0.81-2.54,0.23-2.54-1.29C289.08,85.75,290.21,83.86,291.62,83.04z"/>
		<path style="opacity:0.9;fill:#FFFFFF;" d="M291.62,83.04l75.04-43.53c1.4-0.81,2.54-0.24,2.54,1.29s-1.14,3.41-2.54,4.22
			l-75.04,43.53c-1.4,0.81-2.54,0.23-2.54-1.29C289.08,85.75,290.21,83.86,291.62,83.04z"/>
		<path style="opacity:0.2;fill:#3786DE;" d="M312.36,71.09l-20.75,11.95c-1.4,0.81-2.54,2.7-2.54,4.22c0,1.52,1.14,2.1,2.54,1.29
			l20.75-11.95V71.09z"/>
		<path style="opacity:0.05;" d="M304.02,78.85c0,0.91,0.15,1.68,0.43,2.32l7.92-4.56v-5.51l-7.77,4.47
			C304.24,76.67,304.02,77.79,304.02,78.85z"/>
		<path style="fill:#3786DE;" d="M312.36,66.86c3.34-1.93,6.05-0.37,6.05,3.5s-2.71,8.56-6.05,10.49c-3.34,1.93-6.05,0.37-6.05-3.5
			C306.31,73.48,309.02,68.79,312.36,66.86z"/>
		<path style="opacity:0.3;fill:#FFFFFF;" d="M312.36,66.86c3.34-1.93,6.05-0.37,6.05,3.5s-2.71,8.56-6.05,10.49
			c-3.34,1.93-6.05,0.37-6.05-3.5C306.31,73.48,309.02,68.79,312.36,66.86z"/>
		<path style="fill:#3786DE;" d="M291.62,104.03l75.04-43.53c1.4-0.81,2.54-0.23,2.54,1.29c0,1.52-1.14,3.41-2.54,4.22l-75.04,43.53
			c-1.4,0.81-2.54,0.23-2.54-1.29C289.08,106.74,290.21,104.85,291.62,104.03z"/>
		<path style="opacity:0.9;fill:#FFFFFF;" d="M291.62,104.03l75.04-43.53c1.4-0.81,2.54-0.23,2.54,1.29c0,1.52-1.14,3.41-2.54,4.22
			l-75.04,43.53c-1.4,0.81-2.54,0.23-2.54-1.29C289.08,106.74,290.21,104.85,291.62,104.03z"/>
		<path style="opacity:0.2;fill:#3786DE;" d="M346.85,72.05l-55.23,31.99c-1.4,0.81-2.54,2.7-2.54,4.22c0,1.52,1.14,2.1,2.54,1.29
			l55.23-31.99V72.05z"/>
		<path style="opacity:0.05;" d="M338.77,79.65c0,0.92,0.16,1.7,0.43,2.34l7.65-4.43v-5.51l-7.51,4.35
			C338.98,77.49,338.77,78.6,338.77,79.65z"/>
		<path style="fill:#3786DE;" d="M347.11,67.66c3.34-1.93,6.05-0.37,6.05,3.5s-2.71,8.56-6.05,10.49c-3.34,1.93-6.05,0.37-6.05-3.5
			S343.77,69.59,347.11,67.66z"/>
		<path style="opacity:0.3;fill:#FFFFFF;" d="M347.11,67.66c3.34-1.93,6.05-0.37,6.05,3.5s-2.71,8.56-6.05,10.49
			c-3.34,1.93-6.05,0.37-6.05-3.5S343.77,69.59,347.11,67.66z"/>
		<path style="fill:#3786DE;" d="M291.62,125.02l75.04-43.53c1.4-0.81,2.54-0.24,2.54,1.29s-1.14,3.41-2.54,4.22l-75.04,43.53
			c-1.4,0.81-2.54,0.23-2.54-1.29C289.08,127.73,290.21,125.83,291.62,125.02z"/>
		<path style="opacity:0.9;fill:#FFFFFF;" d="M291.62,125.02l75.04-43.53c1.4-0.81,2.54-0.24,2.54,1.29s-1.14,3.41-2.54,4.22
			l-75.04,43.53c-1.4,0.81-2.54,0.23-2.54-1.29C289.08,127.73,290.21,125.83,291.62,125.02z"/>
		<path style="opacity:0.2;fill:#3786DE;" d="M312.36,113.07l-20.75,11.95c-1.4,0.81-2.54,2.7-2.54,4.22c0,1.52,1.14,2.1,2.54,1.29
			l20.75-11.95V113.07z"/>
		<path style="opacity:0.05;" d="M304.02,120.83c0,0.91,0.15,1.68,0.43,2.32l7.92-4.56v-5.51l-7.77,4.47
			C304.24,118.65,304.02,119.77,304.02,120.83z"/>
		<path style="fill:#3786DE;" d="M312.36,108.84c3.34-1.93,6.05-0.37,6.05,3.5s-2.71,8.56-6.05,10.49c-3.34,1.93-6.05,0.37-6.05-3.5
			C306.31,115.46,309.02,110.77,312.36,108.84z"/>
		<path style="opacity:0.3;fill:#FFFFFF;" d="M312.36,108.84c3.34-1.93,6.05-0.37,6.05,3.5s-2.71,8.56-6.05,10.49
			c-3.34,1.93-6.05,0.37-6.05-3.5C306.31,115.46,309.02,110.77,312.36,108.84z"/>
	</g>
</g>
<g id="Device">
	<g id="Mobile">
		<g>
			<path id="XMLID_537_" style="fill:#3786DE;" d="M260.29,51.67l-123.86,71.51c-2.31,1.34-4.18,4.59-4.18,7.26v291.73
				c0,2.67,1.88,3.76,4.18,2.42l123.86-71.51c2.31-1.34,4.18-4.59,4.18-7.26V54.09C264.47,51.42,262.59,50.33,260.29,51.67z
				 M258.44,324.22c0,2.28-1.6,3.74-3.59,4.88l-113.41,65.48c-1.98,1.14-3.59,0.22-3.59-2.08V149.95l0,0c0-2.55,1.36-4.91,3.57-6.19
				l113.42-65.52c1.6-0.92,3.59,0.23,3.59,2.07l0,0V324.22z"/>
			<path id="XMLID_478_" style="opacity:0.3;" d="M260.29,51.67l-123.86,71.51c-2.31,1.34-4.18,4.59-4.18,7.26v291.73
				c0,2.67,1.88,3.76,4.18,2.42l123.86-71.51c2.31-1.34,4.18-4.59,4.18-7.26V54.09C264.47,51.42,262.59,50.33,260.29,51.67z
				 M258.44,324.22c0,2.28-1.6,3.74-3.59,4.88l-113.41,65.48c-1.98,1.14-3.59,0.22-3.59-2.08V149.95l0,0c0-2.55,1.36-4.91,3.57-6.19
				l113.42-65.52c1.6-0.92,3.59,0.23,3.59,2.07l0,0V324.22z"/>
		</g>
		<g>
			<path id="XMLID_475_" style="fill:#3786DE;" d="M258.44,324.22c0,2.28-1.6,3.74-3.59,4.88l-113.41,65.48
				c-1.98,1.14-3.59,0.22-3.59-2.08V149.95l0,0c0-2.55,1.36-4.91,3.57-6.19l113.42-65.52c1.6-0.92,3.59,0.23,3.59,2.07l0,0V324.22z"
				/>
			<path id="XMLID_473_" style="opacity:0.5;" d="M258.44,324.22c0,2.28-1.6,3.74-3.59,4.88l-113.41,65.48
				c-1.98,1.14-3.59,0.22-3.59-2.08V149.95l0,0c0-2.55,1.36-4.91,3.57-6.19l113.42-65.52c1.6-0.92,3.59,0.23,3.59,2.07l0,0V324.22z"
				/>
		</g>
		<g>
			<path style="fill:#3786DE;" d="M141.44,394.59l113.41-65.48c0.81-0.46,1.55-0.99,2.15-1.59L137.85,260.4v132.12
				C137.85,394.81,139.47,395.73,141.44,394.59z"/>
			<path style="opacity:0.4;" d="M141.44,394.59l113.41-65.48c0.81-0.46,1.55-0.99,2.15-1.59L137.85,260.4v132.12
				C137.85,394.81,139.47,395.73,141.44,394.59z"/>
		</g>
		<path style="fill:#393B4F;" d="M249.26,319.95V81.47l-107.84,62.29c-2.21,1.28-3.57,3.64-3.57,6.19v237.13l107.82-62.26
			C247.66,323.69,249.26,322.23,249.26,319.95z"/>
		<g>
			<path id="XMLID_472_" style="fill:#3786DE;" d="M135.9,424.85c-2.32,1.07-5.7,0.97-7.86-0.26l-4.79-2.77
				c-2.32-1.34-4.2-4.57-4.2-7.26V122.86c0-1.02,0.27-2.09,0.73-3.13c0.15-0.34,0.31-0.67,0.5-1.01c0.01,0,0.01-0.01,0.01-0.01
				l13.18,7.61h0.01c-0.28,0.5-0.53,1.02-0.73,1.53c-0.32,0.87-0.51,1.76-0.51,2.59v291.73
				C132.24,424.64,133.84,425.76,135.9,424.85z"/>
			<path id="XMLID_468_" style="opacity:0.5;" d="M135.9,424.85c-2.32,1.07-5.7,0.97-7.86-0.26l-4.79-2.77
				c-2.32-1.34-4.2-4.57-4.2-7.26V122.86c0-1.02,0.27-2.09,0.73-3.13c0.15-0.34,0.31-0.67,0.5-1.01c0.01,0,0.01-0.01,0.01-0.01
				l13.18,7.61h0.01c-0.28,0.5-0.53,1.02-0.73,1.53c-0.32,0.87-0.51,1.76-0.51,2.59v291.73
				C132.24,424.64,133.84,425.76,135.9,424.85z"/>
		</g>
		<path id="XMLID_442_" style="fill:#3786DE;" d="M202.05,366.11L202.05,366.11c2.68,0,2.97,3.01,2.97,4.3
			c0,4.68-3.42,10.6-7.47,12.94c-1.04,0.6-2.04,0.91-2.89,0.91c-2.68,0-2.97-3.01-2.97-4.3c0-4.68,3.42-10.6,7.47-12.94
			C200.2,366.43,201.2,366.11,202.05,366.11"/>
		<g id="XMLID_412_">
			<path id="XMLID_440_" style="fill:#282938;" d="M198.26,92.1c1.13-0.65,2.05-0.12,2.05,1.18c0,1.31-0.92,2.89-2.05,3.55
				c-1.13,0.65-2.05,0.12-2.05-1.18C196.22,94.34,197.13,92.75,198.26,92.1z"/>
			<g>
				<path id="XMLID_410_" style="fill:#282938;" d="M185.05,109.38c1-0.58,1.82-0.11,1.82,1.05c0,1.16-0.81,2.57-1.82,3.15
					c-1,0.58-1.82,0.11-1.82-1.05C183.23,111.37,184.04,109.96,185.05,109.38z"/>
				<path id="XMLID_413_" style="fill:#282938;" d="M191.13,105.79l20.34-11.74c1.11-0.64,2.02-0.19,2.02,1.02
					c0,1.21-0.9,2.71-2.02,3.35l-20.34,11.74c-1.11,0.64-2.02,0.19-2.02-1.02C189.11,107.93,190.01,106.43,191.13,105.79z"/>
			</g>
		</g>
		<g>
			<path id="XMLID_411_" style="fill:#3786DE;" d="M264.43,53.43c-0.3-2.18-2.04-2.97-4.14-1.75l-123.87,71.51
				c-1.15,0.66-2.2,1.81-2.96,3.13l-13.18-7.61c0.77-1.32,1.8-2.45,2.97-3.11L247.1,44.07c2.3-1.34,6.06-1.34,8.38,0l4.81,2.76
				C262.41,48.06,264.16,50.9,264.43,53.43z"/>
			<path id="XMLID_407_" style="opacity:0.4;" d="M264.43,53.43c-0.3-2.18-2.04-2.97-4.14-1.75l-123.87,71.51
				c-1.15,0.66-2.2,1.81-2.96,3.13l-13.18-7.61c0.77-1.32,1.8-2.45,2.97-3.11L247.1,44.07c2.3-1.34,6.06-1.34,8.38,0l4.81,2.76
				C262.41,48.06,264.16,50.9,264.43,53.43z"/>
		</g>
		<g id="Device_1_">
			<g id="Mobile_3_">
				<g>
					<path style="fill:#3786DE;" d="M231.94,62.28c-1.2,0.69-3.07,0.72-4.2,0.08c-0.54-0.31-0.8-0.73-0.8-1.15
						c0.01-0.3-0.01-1.44-0.01-1.75c0.01-0.45,0.32-0.91,0.94-1.26l13.28-7.67c1.2-0.69,3.07-0.73,4.2-0.08
						c0.52,0.3,0.78,0.69,0.79,1.09c0.01,0.32,0.01,1.5,0.01,1.81c-0.01,0.45-0.32,0.91-0.94,1.27L231.94,62.28z"/>
					<path style="opacity:0.25;" d="M231.94,62.28c-1.2,0.69-3.07,0.72-4.2,0.08c-0.54-0.31-0.8-0.73-0.8-1.15
						c0.01-0.3-0.01-1.44-0.01-1.75c0.01-0.45,0.32-0.91,0.94-1.26l13.28-7.67c1.2-0.69,3.07-0.73,4.2-0.08
						c0.52,0.3,0.78,0.69,0.79,1.09c0.01,0.32,0.01,1.5,0.01,1.81c-0.01,0.45-0.32,0.91-0.94,1.27L231.94,62.28z"/>
					<path style="fill:#3786DE;" d="M231.94,60.54l13.28-7.67c1.2-0.69,1.26-1.77,0.13-2.42c-1.12-0.65-3-0.61-4.2,0.08l-13.28,7.67
						c-1.2,0.69-1.26,1.78-0.13,2.42C228.87,61.27,230.75,61.23,231.94,60.54z"/>
					<path style="opacity:0.3;" d="M231.94,60.54l13.28-7.67c1.2-0.69,1.26-1.77,0.13-2.42c-1.12-0.65-3-0.61-4.2,0.08l-13.28,7.67
						c-1.2,0.69-1.26,1.78-0.13,2.42C228.87,61.27,230.75,61.23,231.94,60.54z"/>
				</g>
			</g>
		</g>
		<g id="Device_4_">
			<g id="Mobile_2_">
				<g>
					<path style="fill:#3786DE;" d="M127.35,166.8c0-1.38-0.91-3.02-2.03-3.67c-0.54-0.31-1.03-0.33-1.39-0.11
						c-0.26,0.15-1.26,0.71-1.52,0.87c-0.39,0.23-0.63,0.73-0.63,1.44l0,32.52c0,1.38,0.91,3.02,2.03,3.67
						c0.52,0.3,0.99,0.33,1.34,0.14c0.28-0.15,1.3-0.74,1.57-0.9c0.39-0.23,0.63-0.73,0.63-1.44L127.35,166.8z"/>
					<path style="opacity:0.3;" d="M127.35,166.8c0-1.38-0.91-3.02-2.03-3.67c-0.54-0.31-1.03-0.33-1.39-0.11
						c-0.26,0.15-1.26,0.71-1.52,0.87c-0.39,0.23-0.63,0.73-0.63,1.44l0,32.52c0,1.38,0.91,3.02,2.03,3.67
						c0.52,0.3,0.99,0.33,1.34,0.14c0.28-0.15,1.3-0.74,1.57-0.9c0.39-0.23,0.63-0.73,0.63-1.44L127.35,166.8z"/>
					<path style="fill:#3786DE;" d="M125.83,167.68l0,32.52c0,1.38-0.91,1.98-2.03,1.33c-1.12-0.65-2.03-2.29-2.03-3.67l0-32.52
						c0-1.38,0.91-1.97,2.03-1.33S125.83,166.3,125.83,167.68z"/>
					<path style="opacity:0.4;" d="M125.83,167.68l0,32.52c0,1.38-0.91,1.98-2.03,1.33c-1.12-0.65-2.03-2.29-2.03-3.67l0-32.52
						c0-1.38,0.91-1.97,2.03-1.33S125.83,166.3,125.83,167.68z"/>
				</g>
				<g>
					<path style="fill:#3786DE;" d="M127.35,210.34c0-1.38-0.91-3.02-2.03-3.67c-0.54-0.31-1.03-0.33-1.39-0.11
						c-0.26,0.15-1.26,0.71-1.52,0.87c-0.39,0.23-0.63,0.73-0.63,1.44l0,15.33c0,1.38,0.91,3.03,2.03,3.67
						c0.52,0.3,0.99,0.33,1.34,0.14c0.28-0.15,1.3-0.74,1.57-0.9c0.39-0.23,0.63-0.73,0.63-1.44L127.35,210.34z"/>
					<path style="opacity:0.3;" d="M127.35,210.34c0-1.38-0.91-3.02-2.03-3.67c-0.54-0.31-1.03-0.33-1.39-0.11
						c-0.26,0.15-1.26,0.71-1.52,0.87c-0.39,0.23-0.63,0.73-0.63,1.44l0,15.33c0,1.38,0.91,3.03,2.03,3.67
						c0.52,0.3,0.99,0.33,1.34,0.14c0.28-0.15,1.3-0.74,1.57-0.9c0.39-0.23,0.63-0.73,0.63-1.44L127.35,210.34z"/>
					<path style="fill:#3786DE;" d="M125.83,211.21l0,15.33c0,1.38-0.91,1.97-2.03,1.33c-1.12-0.65-2.03-2.29-2.03-3.67l0-15.33
						c0-1.38,0.91-1.98,2.03-1.33C124.92,208.19,125.83,209.83,125.83,211.21z"/>
					<path style="opacity:0.4;" d="M125.83,211.21l0,15.33c0,1.38-0.91,1.97-2.03,1.33c-1.12-0.65-2.03-2.29-2.03-3.67l0-15.33
						c0-1.38,0.91-1.98,2.03-1.33C124.92,208.19,125.83,209.83,125.83,211.21z"/>
				</g>
			</g>
		</g>
	</g>
</g>
<g id="Screen">
	<g>
		<g>
			<path style="fill:#E0E0E0;" d="M268.75,86.55l-114.46,66c-1.42,0.82-2.58,2.82-2.58,4.46v242.12c0,1.64,1.16,3.64,2.58,4.45
				l1.61,0.92c1.43,0.82,3.74,0.81,5.16-0.01l114.46-66.1c1.42-0.82,2.58-2.82,2.58-4.46V91.91c0-1.64-1.16-3.64-2.58-4.45
				l-1.61-0.92C272.49,85.72,270.18,85.72,268.75,86.55z"/>
			<g id="XMLID_405_">
				<path style="fill:#FAFAFA;" d="M278.1,334.11c0,2.27-1.59,3.71-3.56,4.84l-112.49,64.95c-1.96,1.13-3.56,0.22-3.56-2.06V162l0,0
					c0-2.53,1.35-4.87,3.55-6.14l112.5-64.99c1.58-0.92,3.56,0.23,3.56,2.06l0,0V334.11z"/>
			</g>
			<path style="fill:#F5F5F5;" d="M158.47,196.04l0.03,205.81c0,2.28,1.6,3.19,3.56,2.06l112.49-64.95
				c1.97-1.13,3.56-2.58,3.56-4.84l-0.03-207.13L158.47,196.04z"/>
			<g id="XMLID_313_">
				<path style="fill:#E0E0E0;" d="M275.72,91.54c0.67,0,1.39,0.53,1.39,1.39v241.18c0,1.54-0.94,2.76-3.07,3.98l-112.49,64.95
					c-0.4,0.23-0.78,0.35-1.09,0.35c-0.85,0-0.98-0.97-0.98-1.55V162c0-2.17,1.17-4.2,3.05-5.28l112.5-64.99
					C275.25,91.6,275.48,91.54,275.72,91.54 M275.72,90.55c-0.4,0-0.8,0.1-1.18,0.32l-112.5,64.99c-2.19,1.27-3.55,3.61-3.55,6.14
					v239.85c0,1.61,0.81,2.54,1.97,2.54c0.48,0,1.02-0.16,1.59-0.49l112.49-64.95c1.97-1.13,3.56-2.58,3.56-4.84V92.93
					C278.1,91.54,276.96,90.55,275.72,90.55L275.72,90.55z"/>
			</g>
			<path style="fill:#F0F0F0;" d="M278.1,91.91v1.01c0-1.83-1.98-2.97-3.57-2.05l-112.5,64.99c-1.1,0.62-1.98,1.53-2.59,2.59
				c-0.02,0.03-0.03,0.05-0.04,0.08l-6.96-4.02c0.48-0.82,1.12-1.55,1.85-1.96l114.45-66c1.43-0.82,3.74-0.82,5.16-0.01l1.61,0.92
				C276.94,88.27,278.1,90.27,278.1,91.91z"/>
		</g>
		<g>
			<g style="opacity:0.15;">
				<path d="M169.39,199.03l40.03-23.11c1.19-0.68,2.15-0.2,2.15,1.09c0,1.28-0.96,2.88-2.15,3.57l-40.02,23.11
					c-1.19,0.68-2.15,0.2-2.15-1.09C167.24,201.32,168.2,199.72,169.39,199.03z"/>
			</g>
			<g style="opacity:0.15;">
				<path d="M173.41,213.02l23.53-13.57c1.19-0.68,2.15-0.2,2.15,1.09c0,1.28-0.96,2.88-2.15,3.57l-23.53,13.57
					c-1.19,0.68-2.15,0.2-2.15-1.09C171.26,215.3,172.22,213.71,173.41,213.02z"/>
			</g>
			<g>
				<path style="fill:#E0E0E0;" d="M167.24,210.07c-0.17,0-0.34-0.09-0.43-0.25c-0.14-0.24-0.06-0.54,0.18-0.68l104.75-60.48
					c0.24-0.14,0.54-0.06,0.68,0.18c0.14,0.24,0.06,0.54-0.18,0.68l-104.75,60.48C167.41,210.05,167.33,210.07,167.24,210.07z"/>
			</g>
			<g>
				<path style="fill:#E0E0E0;" d="M167.24,228.67c-0.17,0-0.34-0.09-0.43-0.25c-0.14-0.24-0.06-0.54,0.18-0.68l104.75-60.48
					c0.24-0.14,0.54-0.06,0.68,0.18c0.14,0.24,0.06,0.54-0.18,0.68l-104.75,60.48C167.41,228.65,167.33,228.67,167.24,228.67z"/>
			</g>
			<g>
				<g>
					<g>
						<g>
							<path style="fill:#484B64;" d="M256.24,165.34c1.01-0.58,1.82-0.11,1.82,1.05c0,1.16-0.82,2.57-1.83,3.14
								c-1.01,0.57-1.83,0.1-1.82-1.05S255.23,165.92,256.24,165.34z"/>
						</g>
					</g>
				</g>
				<g>
					<g>
						<path style="fill:#484B64;" d="M255.05,171.28c-0.34,0-0.66-0.08-0.94-0.24c-0.63-0.36-0.98-1.09-0.99-2.04
							c-0.01-1.89,1.39-4.23,3.13-5.23l6.15-3.56c0.94-0.54,1.83-0.62,2.51-0.23c0.63,0.36,0.98,1.09,0.98,2.03
							c0,1.91-1.38,4.21-3.14,5.22l-6.13,3.57C256.07,171.12,255.54,171.28,255.05,171.28z M253.8,168.99c0,0.7,0.23,1.21,0.64,1.45
							c0.45,0.26,1.12,0.18,1.82-0.23l6.13-3.57c1.54-0.89,2.8-2.97,2.8-4.63c0-0.69-0.22-1.2-0.63-1.44
							c-0.45-0.26-1.11-0.18-1.82,0.23l-6.15,3.56C255.04,165.25,253.8,167.32,253.8,168.99L253.8,168.99z"/>
					</g>
				</g>
			</g>
			<g style="opacity:0.15;">
				<path d="M173.41,231.61l36-20.79c1.19-0.68,2.15-0.2,2.15,1.09s-0.96,2.88-2.15,3.57l-36,20.79c-1.19,0.68-2.15,0.2-2.15-1.09
					C171.26,233.89,172.22,232.3,173.41,231.61z"/>
			</g>
			<g>
				<path style="fill:#E0E0E0;" d="M167.24,247.26c-0.17,0-0.34-0.09-0.43-0.25c-0.14-0.24-0.06-0.54,0.18-0.68l104.75-60.48
					c0.24-0.14,0.54-0.06,0.68,0.18c0.14,0.24,0.06,0.54-0.18,0.68L167.49,247.2C167.41,247.24,167.33,247.26,167.24,247.26z"/>
			</g>
			<g>
				<g>
					<g>
						<path style="fill:#3786DE;" d="M255.05,189.87c-0.34,0-0.66-0.08-0.94-0.24c-0.63-0.36-0.98-1.09-0.99-2.04
							c-0.01-1.89,1.39-4.23,3.13-5.23l6.15-3.56c0.94-0.54,1.83-0.62,2.51-0.23c0.63,0.36,0.98,1.09,0.98,2.03
							c0,1.91-1.38,4.21-3.14,5.22l-6.13,3.57C256.07,189.71,255.54,189.87,255.05,189.87z"/>
					</g>
				</g>
				<g>
					<g>
						<g>
							<path style="fill:#FAFAFA;" d="M262.82,180.08c1.01-0.58,1.82-0.11,1.82,1.05c0,1.16-0.82,2.57-1.83,3.14
								c-1.01,0.57-1.83,0.1-1.82-1.05C261,182.07,261.82,180.66,262.82,180.08z"/>
						</g>
					</g>
				</g>
			</g>
			<g>
				<g>
					<g>
						<path style="fill:#3786DE;" d="M255.05,227.05c-0.34,0-0.66-0.08-0.94-0.24c-0.63-0.36-0.98-1.09-0.99-2.04
							c-0.01-1.89,1.39-4.23,3.13-5.23l6.15-3.56c0.94-0.54,1.83-0.62,2.51-0.23c0.63,0.36,0.98,1.09,0.98,2.03
							c0,1.91-1.38,4.21-3.14,5.22l-6.13,3.57C256.07,226.89,255.54,227.05,255.05,227.05z"/>
					</g>
				</g>
				<g>
					<g>
						<g>
							<path style="fill:#FAFAFA;" d="M262.82,217.26c1.01-0.58,1.82-0.11,1.82,1.05s-0.82,2.57-1.83,3.14
								c-1.01,0.57-1.83,0.1-1.82-1.05C261,219.25,261.82,217.85,262.82,217.26z"/>
						</g>
					</g>
				</g>
			</g>
			<g>
				<g>
					<g>
						<path style="fill:#3786DE;" d="M255.05,245.64c-0.34,0-0.66-0.08-0.94-0.24c-0.63-0.36-0.98-1.09-0.99-2.04
							c-0.01-1.89,1.39-4.23,3.13-5.23l6.15-3.56c0.94-0.54,1.83-0.62,2.51-0.23c0.63,0.36,0.98,1.09,0.98,2.03
							c0,1.91-1.38,4.21-3.14,5.22l-6.13,3.57C256.07,245.48,255.54,245.64,255.05,245.64z"/>
					</g>
				</g>
				<g>
					<g>
						<g>
							<path style="fill:#FAFAFA;" d="M262.82,235.86c1.01-0.58,1.82-0.11,1.82,1.05c0,1.16-0.82,2.57-1.83,3.14
								c-1.01,0.57-1.83,0.1-1.82-1.05C261,237.84,261.82,236.44,262.82,235.86z"/>
						</g>
					</g>
				</g>
			</g>
			<g style="opacity:0.15;">
				<path d="M173.41,250.2l23.53-13.57c1.19-0.68,2.15-0.2,2.15,1.09c0,1.28-0.96,2.88-2.15,3.57l-23.53,13.57
					c-1.19,0.68-2.15,0.2-2.15-1.09C171.26,252.49,172.22,250.89,173.41,250.2z"/>
			</g>
			<g>
				<path style="fill:#E0E0E0;" d="M167.24,265.86c-0.17,0-0.34-0.09-0.43-0.25c-0.14-0.24-0.06-0.54,0.18-0.68l104.75-60.48
					c0.24-0.14,0.54-0.06,0.68,0.18c0.14,0.24,0.06,0.54-0.18,0.68l-104.75,60.48C167.41,265.83,167.33,265.86,167.24,265.86z"/>
			</g>
			<g>
				<g>
					<g>
						<g>
							<path style="fill:#484B64;" d="M256.24,202.52c1.01-0.58,1.82-0.11,1.82,1.05s-0.82,2.57-1.83,3.14s-1.83,0.1-1.82-1.05
								C254.41,204.51,255.23,203.1,256.24,202.52z"/>
						</g>
					</g>
				</g>
				<g>
					<g>
						<path style="fill:#484B64;" d="M255.05,208.46c-0.34,0-0.66-0.08-0.94-0.24c-0.63-0.36-0.98-1.09-0.99-2.04
							c-0.01-1.89,1.39-4.23,3.13-5.23l6.15-3.56c0.94-0.54,1.83-0.62,2.51-0.23c0.63,0.36,0.98,1.09,0.98,2.03
							c0,1.91-1.38,4.21-3.14,5.22l-6.13,3.57C256.07,208.3,255.54,208.46,255.05,208.46z M253.8,206.17c0,0.7,0.23,1.21,0.64,1.45
							c0.45,0.26,1.12,0.18,1.82-0.23l6.13-3.57c1.54-0.89,2.8-2.97,2.8-4.63c0-0.69-0.22-1.2-0.63-1.44
							c-0.45-0.26-1.11-0.18-1.82,0.23l-6.15,3.56C255.04,202.43,253.8,204.51,253.8,206.17L253.8,206.17z"/>
					</g>
				</g>
			</g>
			<g style="opacity:0.15;">
				<path d="M173.41,268.8l31.98-18.43c1.19-0.68,2.15-0.2,2.15,1.09s-0.96,2.88-2.15,3.57l-31.98,18.43
					c-1.19,0.68-2.15,0.2-2.15-1.09C171.26,271.08,172.22,269.48,173.41,268.8z"/>
			</g>
			<g>
				<path style="fill:#E0E0E0;" d="M167.24,284.45c-0.17,0-0.34-0.09-0.43-0.25c-0.14-0.24-0.06-0.54,0.18-0.68l104.75-60.48
					c0.24-0.14,0.54-0.06,0.68,0.18c0.14,0.24,0.06,0.54-0.18,0.68l-104.75,60.48C167.41,284.43,167.33,284.45,167.24,284.45z"/>
			</g>
			<g style="opacity:0.15;">
				<path d="M173.41,287.39l23.53-13.57c1.19-0.68,2.15-0.2,2.15,1.09c0,1.28-0.96,2.88-2.15,3.57l-23.53,13.57
					c-1.19,0.68-2.15,0.2-2.15-1.09C171.26,289.67,172.22,288.07,173.41,287.39z"/>
			</g>
			<g style="opacity:0.15;">
				<path d="M169.39,310.71l40.03-23.11c1.19-0.68,2.15-0.2,2.15,1.09c0,1.28-0.96,2.88-2.15,3.57l-40.02,23.11
					c-1.19,0.68-2.15,0.2-2.15-1.09C167.24,312.99,168.2,311.4,169.39,310.71z"/>
			</g>
			<g style="opacity:0.15;">
				<path d="M173.41,324.7l44.06-25.49c1.19-0.68,2.15-0.2,2.15,1.09s-0.96,2.88-2.15,3.57l-44.06,25.49
					c-1.19,0.68-2.15,0.2-2.15-1.09C171.26,326.98,172.22,325.38,173.41,324.7z"/>
			</g>
			<g>
				<path style="fill:#E0E0E0;" d="M167.24,321.75c-0.17,0-0.34-0.09-0.43-0.25c-0.14-0.24-0.06-0.54,0.18-0.68l104.75-60.48
					c0.24-0.14,0.54-0.06,0.68,0.18c0.14,0.24,0.06,0.54-0.18,0.68l-104.75,60.48C167.41,321.73,167.33,321.75,167.24,321.75z"/>
			</g>
			<g>
				<path style="fill:#E0E0E0;" d="M167.24,340.35c-0.17,0-0.34-0.09-0.43-0.25c-0.14-0.24-0.06-0.54,0.18-0.68l104.75-60.48
					c0.24-0.14,0.54-0.06,0.68,0.18c0.14,0.24,0.06,0.54-0.18,0.68l-104.75,60.48C167.41,340.33,167.33,340.35,167.24,340.35z"/>
			</g>
			<g style="opacity:0.15;">
				<path d="M173.41,343.29l36-20.79c1.19-0.68,2.15-0.2,2.15,1.09s-0.96,2.88-2.15,3.57l-36,20.79c-1.19,0.68-2.15,0.2-2.15-1.09
					C171.26,345.57,172.22,343.98,173.41,343.29z"/>
			</g>
			<g>
				<g>
					<path style="fill:#E0E0E0;" d="M242.29,284.86l21.41-12.34c1.19-0.68,2.15-0.2,2.15,1.09c0,1.28-0.96,2.88-2.15,3.57
						l-21.41,12.34c-1.19,0.68-2.15,0.2-2.15-1.09C240.14,287.15,241.11,285.55,242.29,284.86z"/>
				</g>
				<g>
					<g>
						<path style="fill:#3786DE;" d="M267.98,271.17c-0.03-0.02-0.07-0.04-0.11-0.08c-0.04-0.04-0.06-0.09-0.06-0.17v-0.67
							c0-0.05,0.01-0.09,0.03-0.14c0.02-0.04,0.05-0.07,0.08-0.09c0.01,0,0.01-0.01,0.02-0.01c0.01,0,0.02,0,0.03,0l1.79,0.82
							c0.05,0.02,0.09,0.04,0.11,0.07c0.03,0.03,0.04,0.09,0.04,0.17v0.33c0,0.08-0.01,0.16-0.04,0.21
							c-0.03,0.06-0.06,0.13-0.11,0.2l-1.79,2.89c-0.01,0.02-0.02,0.03-0.03,0.04c-0.01,0.01-0.02,0.01-0.02,0.02
							c-0.03,0.02-0.06,0.02-0.08,0c-0.02-0.02-0.03-0.05-0.03-0.1V274c0-0.08,0.02-0.16,0.06-0.24c0.04-0.08,0.07-0.15,0.11-0.2
							l1.16-1.86L267.98,271.17z"/>
					</g>
				</g>
			</g>
			<g>
				<g>
					<path style="fill:#E0E0E0;" d="M242.29,303.47l21.41-12.34c1.19-0.68,2.15-0.2,2.15,1.09c0,1.28-0.96,2.88-2.15,3.57
						l-21.41,12.34c-1.19,0.68-2.15,0.2-2.15-1.09C240.14,305.76,241.11,304.16,242.29,303.47z"/>
				</g>
				<g>
					<g>
						<path style="fill:#3786DE;" d="M267.98,289.78c-0.03-0.02-0.07-0.04-0.11-0.08c-0.04-0.04-0.06-0.09-0.06-0.17v-0.67
							c0-0.05,0.01-0.09,0.03-0.14c0.02-0.04,0.05-0.07,0.08-0.09c0.01,0,0.01-0.01,0.02-0.01c0.01,0,0.02,0,0.03,0l1.79,0.82
							c0.05,0.02,0.09,0.04,0.11,0.07c0.03,0.03,0.04,0.09,0.04,0.17v0.33c0,0.08-0.01,0.16-0.04,0.21
							c-0.03,0.06-0.06,0.13-0.11,0.2l-1.79,2.89c-0.01,0.02-0.02,0.03-0.03,0.04c-0.01,0.01-0.02,0.01-0.02,0.02
							c-0.03,0.02-0.06,0.02-0.08,0c-0.02-0.02-0.03-0.05-0.03-0.1v-0.67c0-0.08,0.02-0.16,0.06-0.24c0.04-0.08,0.07-0.15,0.11-0.2
							l1.16-1.86L267.98,289.78z"/>
					</g>
				</g>
			</g>
			<g>
				<g>
					<path style="fill:#E0E0E0;" d="M172.46,383.59c-0.29,0-0.56-0.07-0.81-0.21c-0.57-0.33-0.88-0.97-0.88-1.82v-9
						c0-1.55,1.05-3.37,2.4-4.15l27.94-16.13c0.73-0.43,1.45-0.48,2.01-0.15c0.57,0.33,0.88,0.97,0.88,1.82v9
						c0,1.55-1.05,3.37-2.4,4.15l-27.94,16.13C173.25,383.47,172.84,383.59,172.46,383.59z M202.32,352.92
						c-0.21,0-0.45,0.08-0.71,0.23l-27.94,16.13c-1.03,0.59-1.9,2.1-1.9,3.29v9c0,0.47,0.14,0.82,0.38,0.96
						c0.24,0.14,0.61,0.08,1.02-0.15l27.94-16.13c1.03-0.59,1.9-2.1,1.9-3.29v-9c0-0.47-0.14-0.82-0.38-0.96
						C202.54,352.94,202.43,352.92,202.32,352.92z"/>
				</g>
				<g>
					<path style="fill:#E0E0E0;" d="M179.74,371.33c0,0.07,0,0.15-0.01,0.27c0,0.11,0,0.23,0,0.35c0,0.12,0,0.24,0,0.35
						c0,0.11,0,0.2,0.01,0.26c0.01,0.11,0.02,0.21,0.04,0.3c0.02,0.09,0.06,0.16,0.1,0.21c0.05,0.05,0.11,0.08,0.18,0.08
						c0.07,0,0.16-0.03,0.27-0.09c0.11-0.06,0.2-0.13,0.27-0.21c0.07-0.08,0.13-0.16,0.17-0.24c0.04-0.08,0.08-0.16,0.1-0.25
						c0.02-0.08,0.04-0.15,0.05-0.22c0.01-0.09,0.03-0.15,0.05-0.19c0.02-0.04,0.06-0.08,0.11-0.11l0.62-0.36
						c0.03-0.02,0.05-0.01,0.07,0c0.02,0.02,0.03,0.05,0.03,0.1c0,0.25-0.04,0.51-0.12,0.77c-0.08,0.26-0.18,0.51-0.31,0.75
						c-0.13,0.24-0.29,0.45-0.47,0.65c-0.18,0.2-0.37,0.36-0.58,0.48c-0.23,0.13-0.43,0.2-0.61,0.19c-0.18,0-0.33-0.06-0.46-0.16
						c-0.13-0.11-0.22-0.26-0.29-0.46c-0.07-0.2-0.11-0.43-0.12-0.7c-0.01-0.2-0.01-0.41-0.01-0.64s0-0.45,0.01-0.66
						c0.01-0.27,0.04-0.55,0.11-0.83c0.07-0.28,0.17-0.55,0.29-0.8c0.12-0.25,0.28-0.48,0.46-0.69c0.18-0.21,0.38-0.38,0.61-0.51
						c0.21-0.12,0.4-0.19,0.58-0.19c0.18-0.01,0.33,0.03,0.47,0.11c0.13,0.08,0.24,0.21,0.31,0.39c0.08,0.18,0.12,0.39,0.12,0.63
						c0,0.04-0.01,0.09-0.03,0.13c-0.02,0.04-0.04,0.07-0.07,0.09l-0.62,0.36c-0.05,0.03-0.09,0.04-0.11,0.02
						c-0.02-0.02-0.04-0.06-0.05-0.13c-0.01-0.05-0.03-0.1-0.05-0.16c-0.03-0.06-0.06-0.1-0.1-0.13c-0.04-0.03-0.1-0.04-0.17-0.04
						c-0.07,0-0.16,0.03-0.27,0.09c-0.11,0.06-0.2,0.14-0.27,0.23c-0.07,0.09-0.13,0.18-0.18,0.29c-0.05,0.1-0.08,0.21-0.1,0.33
						C179.76,371.1,179.75,371.22,179.74,371.33z"/>
					<path style="fill:#E0E0E0;" d="M182.32,371.93c0-0.32,0.08-0.63,0.24-0.93c0.16-0.3,0.42-0.6,0.78-0.91l0.55-0.47
						c0-0.12-0.02-0.2-0.06-0.25c-0.04-0.05-0.11-0.05-0.21,0.01c-0.07,0.04-0.13,0.09-0.17,0.15c-0.04,0.05-0.07,0.1-0.09,0.13
						c-0.03,0.06-0.06,0.1-0.08,0.12c-0.03,0.03-0.06,0.05-0.09,0.07l-0.6,0.35c-0.03,0.02-0.06,0.02-0.08,0
						c-0.02-0.02-0.03-0.05-0.03-0.1c0.01-0.12,0.04-0.25,0.09-0.4c0.06-0.15,0.13-0.31,0.23-0.47c0.1-0.16,0.22-0.31,0.36-0.46
						c0.14-0.15,0.29-0.27,0.45-0.36c0.19-0.11,0.36-0.17,0.5-0.18c0.14-0.01,0.26,0.02,0.35,0.1c0.09,0.07,0.16,0.19,0.21,0.34
						c0.04,0.15,0.07,0.34,0.07,0.55v2.21c0,0.05-0.01,0.11-0.04,0.16c-0.03,0.05-0.05,0.09-0.09,0.11l-0.6,0.34
						c-0.03,0.02-0.06,0.02-0.09-0.01c-0.03-0.02-0.04-0.06-0.04-0.12v-0.21c-0.08,0.19-0.17,0.36-0.28,0.51
						c-0.11,0.15-0.26,0.28-0.44,0.38c-0.14,0.08-0.26,0.12-0.36,0.12c-0.11,0-0.19-0.03-0.27-0.09c-0.07-0.06-0.12-0.15-0.16-0.27
						C182.34,372.24,182.32,372.1,182.32,371.93z M183.4,371.47c0.07-0.04,0.13-0.09,0.19-0.17c0.06-0.07,0.11-0.15,0.16-0.24
						c0.04-0.09,0.08-0.18,0.1-0.28c0.03-0.1,0.04-0.2,0.04-0.3l-0.44,0.35c-0.09,0.08-0.15,0.15-0.21,0.24
						c-0.05,0.09-0.08,0.18-0.08,0.27c0,0.09,0.02,0.15,0.06,0.16C183.27,371.53,183.33,371.52,183.4,371.47z"/>
					<path style="fill:#E0E0E0;" d="M188.04,369.51c0,0.05-0.01,0.11-0.04,0.16c-0.03,0.05-0.06,0.09-0.09,0.11l-0.6,0.34
						c-0.03,0.02-0.06,0.02-0.09-0.01c-0.03-0.02-0.04-0.06-0.04-0.12v-1.85c0-0.21-0.03-0.36-0.1-0.45
						c-0.07-0.09-0.17-0.09-0.31-0.01c-0.14,0.08-0.24,0.21-0.31,0.37c-0.07,0.16-0.1,0.35-0.1,0.56v1.85
						c0,0.05-0.01,0.11-0.04,0.16c-0.03,0.05-0.06,0.09-0.09,0.11l-0.6,0.34c-0.03,0.02-0.06,0.02-0.09-0.01
						c-0.03-0.02-0.04-0.06-0.04-0.12v-3.4c0-0.05,0.01-0.11,0.04-0.16c0.03-0.05,0.06-0.09,0.09-0.11l0.57-0.33
						c0.03-0.02,0.06-0.02,0.09,0.01c0.03,0.03,0.04,0.06,0.04,0.12v0.17c0.03-0.06,0.06-0.13,0.09-0.21
						c0.04-0.07,0.08-0.15,0.14-0.22c0.05-0.07,0.12-0.14,0.19-0.21c0.07-0.07,0.15-0.13,0.25-0.18c0.15-0.09,0.29-0.14,0.42-0.14
						c0.13-0.01,0.23,0.03,0.32,0.12c0.09,0.08,0.16,0.22,0.21,0.4c0.05,0.18,0.08,0.41,0.08,0.7V369.51z"/>
					<path style="fill:#E0E0E0;" d="M189.55,366.68c-0.01,0.08-0.01,0.16-0.01,0.26c0,0.1,0,0.18,0.01,0.25
						c0.01,0.17,0.05,0.29,0.13,0.35c0.08,0.06,0.18,0.06,0.3-0.01c0.11-0.06,0.19-0.13,0.24-0.21c0.06-0.08,0.1-0.17,0.13-0.27
						c0.02-0.05,0.03-0.09,0.06-0.13c0.02-0.04,0.05-0.07,0.08-0.09l0.62-0.36c0.03-0.02,0.07-0.02,0.09,0
						c0.03,0.02,0.04,0.06,0.03,0.12c0,0.08-0.02,0.21-0.06,0.38c-0.04,0.17-0.1,0.36-0.2,0.56c-0.09,0.2-0.22,0.41-0.38,0.61
						c-0.16,0.2-0.37,0.37-0.62,0.52c-0.18,0.1-0.34,0.16-0.49,0.17c-0.15,0.01-0.29-0.02-0.4-0.1c-0.12-0.08-0.21-0.2-0.28-0.37
						c-0.07-0.17-0.11-0.38-0.11-0.63c0-0.07,0-0.17,0-0.29c0-0.12,0-0.22,0-0.29c0.01-0.26,0.04-0.52,0.11-0.76
						c0.07-0.25,0.16-0.47,0.28-0.69c0.11-0.21,0.25-0.4,0.4-0.57c0.15-0.17,0.32-0.3,0.49-0.4c0.25-0.15,0.46-0.21,0.62-0.19
						c0.16,0.02,0.29,0.07,0.38,0.17c0.09,0.09,0.16,0.2,0.2,0.33c0.04,0.13,0.06,0.23,0.06,0.31c0,0.05-0.01,0.1-0.03,0.16
						c-0.03,0.06-0.06,0.09-0.09,0.11l-0.62,0.36c-0.03,0.02-0.06,0.02-0.08,0c-0.02-0.02-0.04-0.04-0.06-0.07
						c-0.03-0.06-0.08-0.1-0.13-0.12c-0.06-0.01-0.13,0.01-0.24,0.07c-0.13,0.07-0.23,0.18-0.3,0.33
						C189.61,366.34,189.56,366.5,189.55,366.68z"/>
					<path style="fill:#E0E0E0;" d="M192.63,365.58c0,0.11,0.01,0.2,0.04,0.25c0.03,0.06,0.06,0.1,0.1,0.12
						c0.04,0.02,0.09,0.02,0.14,0.01c0.05-0.01,0.1-0.03,0.15-0.06c0.09-0.06,0.17-0.11,0.22-0.17c0.06-0.06,0.1-0.13,0.14-0.2
						c0.03-0.06,0.06-0.11,0.08-0.13c0.02-0.02,0.04-0.04,0.08-0.06l0.62-0.36c0.07-0.04,0.1-0.01,0.1,0.1
						c0,0.06-0.02,0.16-0.07,0.31c-0.05,0.15-0.12,0.31-0.22,0.49c-0.1,0.18-0.23,0.36-0.39,0.55c-0.16,0.18-0.35,0.34-0.56,0.46
						c-0.21,0.12-0.39,0.18-0.55,0.18c-0.16,0-0.29-0.05-0.4-0.16c-0.11-0.11-0.19-0.27-0.25-0.48c-0.06-0.21-0.08-0.47-0.08-0.78
						c0-0.28,0.03-0.56,0.08-0.83c0.06-0.27,0.14-0.53,0.25-0.77c0.11-0.24,0.24-0.45,0.4-0.65c0.16-0.19,0.34-0.35,0.55-0.47
						c0.23-0.13,0.43-0.19,0.59-0.16c0.16,0.03,0.3,0.1,0.4,0.23c0.1,0.13,0.18,0.3,0.22,0.51c0.05,0.21,0.07,0.43,0.07,0.66v0.2
						c0,0.05-0.01,0.11-0.04,0.16c-0.03,0.05-0.06,0.09-0.09,0.11L192.63,365.58z M193.06,363.93c-0.13,0.08-0.23,0.2-0.3,0.36
						c-0.07,0.16-0.11,0.32-0.12,0.48l0.85-0.49c-0.01-0.14-0.05-0.26-0.12-0.34C193.29,363.86,193.19,363.85,193.06,363.93z"/>
					<path style="fill:#E0E0E0;" d="M195.86,365c0,0.05-0.01,0.11-0.04,0.16c-0.03,0.05-0.06,0.09-0.09,0.11l-0.6,0.34
						c-0.03,0.02-0.06,0.02-0.09-0.01c-0.03-0.03-0.04-0.06-0.04-0.12v-4.79c0-0.05,0.01-0.11,0.04-0.16
						c0.03-0.05,0.06-0.09,0.09-0.11l0.6-0.34c0.03-0.02,0.06-0.02,0.09,0.01c0.03,0.02,0.04,0.06,0.04,0.12V365z"/>
				</g>
			</g>
			<g>
				<g>
					<path style="fill:#3786DE;" d="M237.69,343.23l0-9c0-1.37,0.96-3.03,2.15-3.72l27.94-16.13c1.19-0.68,2.15-0.13,2.15,1.24l0,9
						c0,1.37-0.96,3.03-2.15,3.72l-27.94,16.13C238.65,345.16,237.69,344.6,237.69,343.23z"/>
				</g>
				<g>
					<path style="fill:#FAFAFA;" d="M248.59,329.66c0.06-0.04,0.11-0.04,0.14,0c0.03,0.03,0.06,0.08,0.07,0.12l1.03,4
						c0.01,0.04,0.02,0.07,0.02,0.1c0,0.04-0.01,0.09-0.03,0.13c-0.02,0.04-0.04,0.07-0.07,0.09l-0.6,0.34
						c-0.06,0.04-0.11,0.04-0.13,0.02c-0.03-0.03-0.04-0.06-0.05-0.09l-0.13-0.53l-1.26,0.73l-0.13,0.68
						c-0.01,0.04-0.02,0.09-0.05,0.15c-0.03,0.06-0.07,0.1-0.14,0.14l-0.6,0.34c-0.03,0.02-0.05,0.01-0.07,0
						c-0.02-0.02-0.03-0.05-0.03-0.1c0-0.02,0.01-0.06,0.02-0.12l1.03-5.19c0.01-0.06,0.04-0.13,0.07-0.2
						c0.03-0.07,0.08-0.13,0.15-0.16L248.59,329.66z M247.82,333.29l0.77-0.44l-0.38-1.53L247.82,333.29z"/>
					<path style="fill:#FAFAFA;" d="M251.91,332.92c-0.09,0.05-0.17,0.09-0.24,0.1c-0.07,0.01-0.13,0.01-0.18,0
						c-0.05-0.02-0.09-0.04-0.13-0.07c-0.03-0.03-0.06-0.06-0.09-0.09v1.56c0,0.05-0.01,0.11-0.04,0.16
						c-0.03,0.05-0.06,0.09-0.09,0.11l-0.6,0.34c-0.03,0.02-0.06,0.02-0.09-0.01c-0.03-0.02-0.04-0.06-0.04-0.12v-4.79
						c0-0.05,0.01-0.11,0.04-0.16c0.03-0.05,0.06-0.09,0.09-0.11l0.57-0.33c0.03-0.02,0.06-0.02,0.09,0.01
						c0.03,0.02,0.04,0.06,0.04,0.12v0.17c0.03-0.06,0.06-0.13,0.09-0.21c0.03-0.07,0.07-0.14,0.12-0.21
						c0.05-0.07,0.11-0.14,0.18-0.21c0.07-0.07,0.16-0.13,0.26-0.19c0.14-0.08,0.28-0.13,0.4-0.13c0.13-0.01,0.24,0.03,0.33,0.11
						c0.1,0.08,0.17,0.21,0.23,0.39c0.06,0.18,0.09,0.4,0.1,0.69c0,0.07,0,0.17,0,0.29s0,0.22,0,0.3c-0.01,0.29-0.04,0.56-0.1,0.8
						c-0.06,0.24-0.13,0.46-0.23,0.65c-0.09,0.19-0.21,0.36-0.33,0.5C252.18,332.73,252.05,332.84,251.91,332.92z M252.12,331.03
						c0.01-0.14,0.01-0.28,0-0.41c-0.01-0.16-0.04-0.29-0.11-0.38c-0.06-0.09-0.17-0.09-0.32-0.01c-0.07,0.04-0.13,0.09-0.18,0.15
						c-0.05,0.06-0.09,0.13-0.13,0.21c-0.03,0.07-0.06,0.15-0.08,0.23c-0.02,0.08-0.03,0.16-0.04,0.23
						c-0.01,0.08-0.01,0.16-0.01,0.26c0,0.1,0,0.18,0.01,0.25c0.01,0.07,0.02,0.13,0.04,0.19c0.02,0.06,0.05,0.1,0.08,0.14
						c0.03,0.04,0.08,0.06,0.13,0.06c0.05,0.01,0.11-0.01,0.18-0.05c0.15-0.09,0.25-0.21,0.32-0.37
						C252.07,331.38,252.11,331.21,252.12,331.03z"/>
					<path style="fill:#FAFAFA;" d="M255.15,331.05c-0.09,0.05-0.17,0.09-0.24,0.1c-0.07,0.01-0.13,0.01-0.18,0
						c-0.05-0.02-0.09-0.04-0.13-0.07c-0.04-0.03-0.06-0.06-0.09-0.09v1.56c0,0.05-0.01,0.11-0.04,0.16
						c-0.03,0.05-0.06,0.09-0.09,0.11l-0.6,0.34c-0.03,0.02-0.06,0.02-0.09-0.01c-0.02-0.02-0.04-0.06-0.04-0.12v-4.79
						c0-0.05,0.01-0.11,0.04-0.16c0.03-0.05,0.06-0.09,0.09-0.11l0.57-0.33c0.03-0.02,0.06-0.02,0.09,0.01
						c0.03,0.02,0.04,0.06,0.04,0.12v0.17c0.03-0.06,0.06-0.13,0.09-0.21c0.03-0.07,0.07-0.14,0.12-0.21
						c0.05-0.07,0.11-0.14,0.18-0.21c0.07-0.07,0.16-0.13,0.26-0.19c0.14-0.08,0.28-0.13,0.4-0.13c0.13-0.01,0.24,0.03,0.33,0.11
						c0.09,0.08,0.17,0.21,0.23,0.39c0.06,0.18,0.09,0.4,0.1,0.69c0,0.07,0,0.17,0,0.29c0,0.12,0,0.22,0,0.3
						c-0.01,0.29-0.04,0.56-0.1,0.8c-0.06,0.24-0.14,0.46-0.23,0.65c-0.09,0.19-0.21,0.36-0.33,0.5
						C255.42,330.86,255.29,330.97,255.15,331.05z M255.36,329.16c0.01-0.14,0.01-0.28,0-0.41c-0.01-0.16-0.05-0.29-0.11-0.38
						c-0.06-0.09-0.17-0.09-0.32-0.01c-0.07,0.04-0.13,0.09-0.18,0.15c-0.05,0.06-0.09,0.13-0.13,0.21
						c-0.03,0.07-0.06,0.15-0.08,0.23c-0.02,0.08-0.03,0.16-0.04,0.23c-0.01,0.08-0.01,0.16-0.01,0.26c0,0.1,0,0.18,0.01,0.25
						c0.01,0.07,0.02,0.13,0.04,0.19c0.02,0.06,0.05,0.1,0.08,0.14c0.03,0.04,0.08,0.06,0.13,0.06c0.05,0.01,0.11-0.01,0.18-0.05
						c0.15-0.09,0.25-0.21,0.32-0.37C255.31,329.51,255.35,329.34,255.36,329.16z"/>
					<path style="fill:#FAFAFA;" d="M257.75,329.28c0,0.05-0.01,0.11-0.04,0.16c-0.03,0.05-0.06,0.09-0.09,0.11l-0.6,0.34
						c-0.03,0.02-0.06,0.02-0.09-0.01c-0.03-0.02-0.04-0.06-0.04-0.12v-4.79c0-0.05,0.01-0.11,0.04-0.16
						c0.03-0.05,0.06-0.09,0.09-0.11l0.6-0.34c0.03-0.02,0.06-0.02,0.09,0.01c0.03,0.03,0.04,0.06,0.04,0.12V329.28z"/>
					<path style="fill:#FAFAFA;" d="M259.82,329.49c-0.01,0.04-0.03,0.09-0.05,0.14c-0.02,0.05-0.05,0.09-0.09,0.11l-0.62,0.36
						c-0.03,0.02-0.06,0.02-0.08,0c-0.02-0.02-0.03-0.06-0.03-0.1c0-0.02,0-0.04,0-0.05l0.36-1.51l-0.96-2.87
						c0-0.01-0.01-0.03-0.01-0.05c0-0.05,0.01-0.1,0.03-0.14c0.02-0.05,0.05-0.08,0.08-0.1l0.62-0.36c0.04-0.02,0.07-0.02,0.09,0.01
						c0.02,0.03,0.04,0.06,0.05,0.09l0.53,1.59l0.52-2.2c0.01-0.04,0.03-0.09,0.05-0.14c0.02-0.05,0.05-0.09,0.09-0.11l0.63-0.36
						c0.03-0.02,0.06-0.02,0.08,0c0.02,0.02,0.03,0.06,0.03,0.1c0,0.02,0,0.04,0,0.05L259.82,329.49z"/>
				</g>
			</g>
		</g>
		<g>
			<g>
				<path style="fill:#484B64;" d="M205.07,156.45c0.41-0.24,0.74-0.27,0.96-0.11c0.23,0.17,0.34,0.54,0.34,1.12
					c0,0.58-0.11,1.09-0.34,1.52c-0.23,0.44-0.55,0.78-0.96,1.01l-0.82,0.47v1.76c0,0.06-0.01,0.12-0.04,0.17
					c-0.03,0.06-0.06,0.1-0.1,0.12l-0.41,0.24c-0.04,0.02-0.07,0.02-0.1-0.01c-0.03-0.03-0.04-0.07-0.04-0.13v-5.1
					c0-0.06,0.01-0.12,0.04-0.17c0.03-0.06,0.06-0.1,0.1-0.12L205.07,156.45z M204.24,159.49l0.79-0.46
					c0.19-0.11,0.35-0.26,0.47-0.45c0.12-0.19,0.17-0.43,0.17-0.72c0-0.29-0.06-0.47-0.17-0.51c-0.12-0.05-0.27-0.01-0.47,0.1
					l-0.79,0.46V159.49z"/>
				<path style="fill:#484B64;" d="M208.13,157.05c-0.21,0.12-0.35,0.27-0.44,0.47c-0.09,0.19-0.14,0.45-0.14,0.76v2.05
					c0,0.06-0.01,0.12-0.04,0.17c-0.03,0.06-0.06,0.1-0.1,0.12l-0.39,0.22c-0.04,0.02-0.07,0.02-0.1-0.01
					c-0.03-0.03-0.04-0.07-0.04-0.13v-3.68c0-0.06,0.01-0.12,0.04-0.17c0.03-0.06,0.06-0.1,0.1-0.12l0.39-0.22
					c0.04-0.02,0.07-0.02,0.1,0.01c0.03,0.03,0.04,0.07,0.04,0.13v0.18c0.09-0.18,0.18-0.33,0.28-0.46c0.1-0.13,0.23-0.24,0.4-0.33
					l0.23-0.13c0.04-0.02,0.07-0.02,0.1,0.01c0.03,0.03,0.04,0.07,0.04,0.13v0.52c0,0.06-0.01,0.12-0.04,0.17
					c-0.03,0.06-0.06,0.1-0.1,0.12L208.13,157.05z"/>
				<path style="fill:#484B64;" d="M208.85,157.74c0-0.29,0.03-0.59,0.09-0.88c0.06-0.29,0.14-0.57,0.25-0.82
					c0.11-0.26,0.24-0.48,0.4-0.68c0.15-0.2,0.33-0.36,0.52-0.47c0.19-0.11,0.37-0.16,0.52-0.14c0.15,0.02,0.29,0.09,0.4,0.2
					c0.11,0.12,0.19,0.28,0.25,0.49c0.06,0.21,0.09,0.45,0.09,0.72v0.36c0,0.06-0.01,0.12-0.04,0.17c-0.03,0.06-0.06,0.1-0.1,0.12
					l-1.71,0.99c0,0.12,0.02,0.22,0.05,0.29c0.03,0.07,0.08,0.13,0.13,0.16c0.05,0.03,0.12,0.04,0.19,0.03
					c0.07-0.01,0.15-0.04,0.22-0.08c0.11-0.06,0.2-0.13,0.27-0.21c0.07-0.07,0.12-0.15,0.17-0.23c0.04-0.06,0.07-0.11,0.09-0.14
					c0.02-0.03,0.06-0.06,0.1-0.08l0.41-0.24c0.04-0.02,0.07-0.02,0.1,0.01c0.03,0.03,0.04,0.07,0.04,0.13
					c0,0.08-0.03,0.19-0.08,0.33c-0.05,0.14-0.12,0.3-0.22,0.47c-0.1,0.17-0.22,0.33-0.37,0.5c-0.15,0.16-0.31,0.3-0.51,0.41
					c-0.19,0.11-0.36,0.16-0.52,0.15c-0.16-0.01-0.29-0.08-0.4-0.21c-0.11-0.13-0.19-0.3-0.25-0.53
					C208.88,158.33,208.85,158.05,208.85,157.74z M210.11,155.83c-0.1,0.06-0.18,0.13-0.25,0.21c-0.07,0.09-0.13,0.18-0.18,0.28
					c-0.05,0.1-0.08,0.2-0.11,0.3c-0.03,0.1-0.04,0.19-0.05,0.28l1.16-0.67c-0.01-0.08-0.02-0.15-0.04-0.23
					c-0.02-0.08-0.05-0.14-0.09-0.18c-0.04-0.05-0.1-0.07-0.17-0.08C210.31,155.74,210.22,155.77,210.11,155.83z"/>
				<path style="fill:#484B64;" d="M212.81,153.4l0.71-0.41c0.04-0.02,0.07-0.02,0.1,0.01c0.03,0.03,0.04,0.07,0.04,0.13v0.52
					c0,0.06-0.01,0.12-0.04,0.17c-0.03,0.06-0.06,0.1-0.1,0.12l-0.71,0.41v2.94c0,0.06-0.01,0.12-0.04,0.17
					c-0.03,0.06-0.06,0.1-0.1,0.12l-0.39,0.22c-0.04,0.02-0.07,0.02-0.1-0.01c-0.03-0.03-0.04-0.07-0.04-0.13v-2.94l-0.34,0.2
					c-0.04,0.02-0.07,0.02-0.1-0.01c-0.03-0.03-0.04-0.07-0.04-0.13v-0.52c0-0.06,0.01-0.12,0.04-0.17c0.03-0.06,0.06-0.1,0.1-0.12
					l0.34-0.2v-0.35c0-0.25,0.02-0.48,0.07-0.69c0.05-0.2,0.12-0.39,0.21-0.55c0.09-0.16,0.2-0.3,0.32-0.42
					c0.12-0.12,0.26-0.22,0.42-0.31l0.42-0.24c0.04-0.02,0.07-0.02,0.1,0.01c0.03,0.03,0.04,0.07,0.04,0.13v0.52
					c0,0.06-0.01,0.12-0.04,0.17c-0.03,0.06-0.06,0.1-0.1,0.12l-0.36,0.21c-0.13,0.07-0.23,0.17-0.3,0.28
					c-0.07,0.11-0.1,0.27-0.1,0.47V153.4z"/>
				<path style="fill:#484B64;" d="M213.92,154.81c0-0.29,0.03-0.59,0.09-0.88c0.06-0.29,0.14-0.57,0.25-0.82
					c0.11-0.26,0.24-0.48,0.4-0.68c0.15-0.2,0.33-0.36,0.52-0.47c0.19-0.11,0.36-0.16,0.52-0.14c0.16,0.02,0.29,0.09,0.4,0.2
					c0.11,0.12,0.19,0.28,0.25,0.49c0.06,0.21,0.09,0.45,0.09,0.72v0.36c0,0.06-0.01,0.12-0.04,0.17c-0.03,0.06-0.06,0.1-0.1,0.12
					l-1.71,0.99c0,0.12,0.02,0.22,0.05,0.29c0.03,0.07,0.08,0.13,0.13,0.16c0.05,0.03,0.12,0.04,0.19,0.03
					c0.07-0.01,0.15-0.04,0.22-0.08c0.11-0.06,0.2-0.13,0.27-0.21c0.07-0.07,0.12-0.15,0.17-0.23c0.04-0.06,0.07-0.11,0.09-0.14
					c0.02-0.03,0.06-0.06,0.1-0.08l0.41-0.24c0.04-0.02,0.07-0.02,0.1,0.01c0.03,0.03,0.04,0.07,0.04,0.13
					c0,0.08-0.03,0.19-0.08,0.33c-0.05,0.14-0.12,0.3-0.22,0.47c-0.1,0.17-0.22,0.33-0.37,0.5c-0.15,0.16-0.31,0.3-0.5,0.41
					c-0.19,0.11-0.37,0.16-0.52,0.15c-0.16-0.01-0.29-0.08-0.4-0.21c-0.11-0.13-0.19-0.3-0.25-0.53
					C213.95,155.4,213.92,155.13,213.92,154.81z M215.18,152.9c-0.1,0.06-0.18,0.13-0.25,0.21c-0.07,0.09-0.13,0.18-0.18,0.28
					c-0.05,0.1-0.08,0.2-0.11,0.3c-0.03,0.1-0.04,0.19-0.05,0.28l1.16-0.67c-0.01-0.08-0.02-0.15-0.04-0.23
					c-0.02-0.08-0.05-0.14-0.09-0.18c-0.04-0.05-0.1-0.07-0.17-0.08C215.38,152.81,215.29,152.84,215.18,152.9z"/>
				<path style="fill:#484B64;" d="M218.25,151.21c-0.21,0.12-0.35,0.27-0.44,0.47c-0.09,0.19-0.14,0.45-0.14,0.76v2.05
					c0,0.06-0.01,0.12-0.04,0.17c-0.03,0.06-0.06,0.1-0.1,0.12l-0.39,0.22c-0.04,0.02-0.07,0.02-0.1-0.01
					c-0.03-0.03-0.04-0.07-0.04-0.13v-3.68c0-0.06,0.01-0.12,0.04-0.17c0.03-0.06,0.06-0.1,0.1-0.12l0.39-0.22
					c0.04-0.02,0.07-0.02,0.1,0.01c0.03,0.03,0.04,0.07,0.04,0.13v0.18c0.09-0.18,0.18-0.33,0.28-0.46c0.1-0.13,0.23-0.24,0.4-0.33
					l0.23-0.13c0.04-0.02,0.07-0.02,0.1,0.01c0.03,0.03,0.04,0.07,0.04,0.13v0.52c0,0.06-0.01,0.12-0.04,0.17
					c-0.03,0.06-0.06,0.1-0.1,0.12L218.25,151.21z"/>
				<path style="fill:#484B64;" d="M218.97,151.9c0-0.29,0.03-0.59,0.09-0.88c0.06-0.29,0.14-0.57,0.25-0.82
					c0.11-0.26,0.24-0.48,0.4-0.68c0.15-0.2,0.33-0.36,0.52-0.47s0.37-0.16,0.52-0.14c0.15,0.02,0.29,0.09,0.4,0.2
					c0.11,0.12,0.19,0.28,0.25,0.49c0.06,0.21,0.09,0.45,0.09,0.72v0.36c0,0.06-0.01,0.12-0.04,0.17c-0.03,0.06-0.06,0.1-0.1,0.12
					l-1.71,0.99c0,0.12,0.02,0.22,0.05,0.29c0.03,0.07,0.08,0.13,0.13,0.16c0.06,0.03,0.12,0.04,0.19,0.03
					c0.07-0.01,0.15-0.04,0.22-0.08c0.11-0.06,0.2-0.13,0.27-0.21c0.07-0.07,0.12-0.15,0.17-0.23c0.04-0.06,0.07-0.11,0.09-0.14
					c0.02-0.03,0.06-0.06,0.1-0.08l0.41-0.24c0.04-0.02,0.07-0.02,0.1,0.01c0.03,0.03,0.04,0.07,0.04,0.13
					c0,0.08-0.03,0.19-0.08,0.33c-0.05,0.14-0.12,0.3-0.22,0.47c-0.1,0.17-0.22,0.33-0.37,0.5c-0.15,0.16-0.31,0.3-0.5,0.41
					c-0.19,0.11-0.37,0.16-0.52,0.15c-0.16-0.01-0.29-0.08-0.4-0.21c-0.11-0.13-0.19-0.3-0.25-0.53
					C219,152.49,218.97,152.21,218.97,151.9z M220.23,149.99c-0.1,0.06-0.18,0.13-0.25,0.21c-0.07,0.09-0.13,0.18-0.18,0.28
					c-0.05,0.1-0.09,0.2-0.11,0.3c-0.03,0.1-0.04,0.19-0.05,0.28l1.16-0.67c-0.01-0.07-0.02-0.15-0.04-0.23
					c-0.02-0.08-0.05-0.14-0.09-0.18c-0.04-0.05-0.1-0.07-0.17-0.08C220.43,149.9,220.33,149.93,220.23,149.99z"/>
				<path style="fill:#484B64;" d="M224.55,150.52c0,0.06-0.01,0.12-0.04,0.17c-0.03,0.06-0.06,0.1-0.1,0.12l-0.39,0.22
					c-0.04,0.02-0.07,0.02-0.1-0.01c-0.03-0.03-0.04-0.07-0.04-0.13v-2.01c0-0.32-0.05-0.54-0.14-0.67
					c-0.1-0.13-0.24-0.14-0.44-0.03c-0.18,0.1-0.32,0.28-0.43,0.53c-0.11,0.25-0.16,0.53-0.16,0.85v2.01c0,0.06-0.01,0.12-0.04,0.17
					c-0.03,0.06-0.06,0.1-0.1,0.12l-0.39,0.22c-0.04,0.02-0.07,0.02-0.1-0.01c-0.03-0.03-0.04-0.07-0.04-0.13v-3.68
					c0-0.06,0.01-0.12,0.04-0.17c0.03-0.06,0.06-0.1,0.1-0.12l0.39-0.22c0.04-0.02,0.07-0.02,0.1,0.01
					c0.03,0.03,0.04,0.07,0.04,0.13v0.18c0.09-0.19,0.19-0.36,0.31-0.52c0.12-0.16,0.26-0.28,0.43-0.38
					c0.21-0.12,0.38-0.17,0.52-0.15c0.14,0.02,0.25,0.09,0.34,0.21c0.09,0.12,0.15,0.28,0.18,0.48c0.04,0.2,0.05,0.43,0.05,0.68
					V150.52z"/>
				<path style="fill:#484B64;" d="M225.77,147.7c-0.01,0.08-0.01,0.18-0.01,0.28c0,0.11,0,0.2,0.01,0.27
					c0.01,0.16,0.03,0.28,0.07,0.38c0.04,0.09,0.09,0.16,0.14,0.2c0.06,0.04,0.12,0.05,0.19,0.05c0.07-0.01,0.14-0.03,0.21-0.07
					c0.09-0.05,0.16-0.1,0.22-0.16c0.06-0.05,0.11-0.11,0.15-0.18c0.04-0.06,0.08-0.13,0.1-0.19c0.03-0.07,0.06-0.14,0.09-0.22
					c0.02-0.06,0.04-0.12,0.07-0.18c0.03-0.06,0.06-0.11,0.1-0.13l0.39-0.22c0.04-0.02,0.07-0.02,0.1,0.01
					c0.03,0.02,0.04,0.07,0.04,0.13c0,0.11-0.03,0.26-0.08,0.45c-0.05,0.19-0.12,0.38-0.22,0.58c-0.1,0.2-0.23,0.4-0.39,0.59
					c-0.16,0.19-0.34,0.35-0.56,0.47c-0.19,0.11-0.36,0.16-0.51,0.15c-0.15-0.01-0.28-0.07-0.39-0.17c-0.11-0.1-0.2-0.24-0.26-0.43
					c-0.06-0.18-0.1-0.39-0.12-0.62c-0.01-0.09-0.01-0.19-0.01-0.31c0-0.12,0-0.23,0.01-0.33c0.01-0.25,0.05-0.5,0.11-0.76
					c0.07-0.26,0.15-0.5,0.26-0.73c0.11-0.23,0.24-0.44,0.39-0.62c0.15-0.19,0.32-0.33,0.51-0.44c0.22-0.13,0.41-0.18,0.56-0.18
					c0.16,0.01,0.29,0.06,0.39,0.14c0.1,0.09,0.17,0.19,0.22,0.32c0.05,0.13,0.07,0.25,0.08,0.36c0,0.06-0.01,0.11-0.04,0.17
					c-0.03,0.06-0.06,0.1-0.1,0.12l-0.39,0.22c-0.04,0.02-0.07,0.02-0.1-0.01c-0.03-0.03-0.05-0.07-0.07-0.1
					c-0.03-0.05-0.06-0.09-0.09-0.12c-0.03-0.03-0.06-0.06-0.1-0.07c-0.04-0.02-0.09-0.02-0.15-0.01c-0.06,0.01-0.13,0.04-0.22,0.09
					c-0.07,0.04-0.14,0.1-0.21,0.17c-0.07,0.07-0.13,0.16-0.19,0.27c-0.06,0.1-0.1,0.22-0.14,0.36
					C225.8,147.38,225.78,147.53,225.77,147.7z"/>
				<path style="fill:#484B64;" d="M228.05,146.65c0-0.29,0.03-0.59,0.09-0.88c0.06-0.29,0.14-0.57,0.25-0.82
					c0.11-0.26,0.24-0.48,0.4-0.68c0.15-0.2,0.33-0.36,0.52-0.47c0.19-0.11,0.37-0.16,0.52-0.14c0.15,0.02,0.29,0.09,0.4,0.2
					c0.11,0.12,0.19,0.28,0.25,0.49c0.06,0.21,0.09,0.45,0.09,0.72v0.36c0,0.06-0.01,0.12-0.04,0.17c-0.03,0.06-0.06,0.1-0.1,0.12
					l-1.71,0.99c0,0.12,0.02,0.22,0.05,0.29c0.03,0.07,0.08,0.13,0.13,0.16c0.06,0.03,0.12,0.04,0.19,0.03
					c0.07-0.01,0.15-0.04,0.22-0.08c0.11-0.06,0.2-0.13,0.27-0.21c0.07-0.07,0.12-0.15,0.17-0.23c0.04-0.06,0.07-0.11,0.09-0.14
					c0.02-0.03,0.06-0.06,0.1-0.08l0.41-0.24c0.04-0.02,0.07-0.02,0.1,0.01c0.03,0.03,0.04,0.07,0.04,0.13
					c0,0.08-0.03,0.19-0.08,0.33c-0.05,0.14-0.12,0.3-0.22,0.47c-0.1,0.17-0.22,0.33-0.37,0.5c-0.15,0.16-0.31,0.3-0.5,0.41
					c-0.19,0.11-0.37,0.16-0.52,0.15c-0.16-0.01-0.29-0.08-0.4-0.21c-0.11-0.13-0.19-0.3-0.25-0.53
					C228.08,147.24,228.05,146.97,228.05,146.65z M229.31,144.74c-0.1,0.06-0.18,0.13-0.25,0.21c-0.07,0.09-0.13,0.18-0.18,0.28
					c-0.05,0.1-0.09,0.2-0.11,0.3c-0.03,0.1-0.04,0.19-0.05,0.28l1.16-0.67c-0.01-0.08-0.02-0.15-0.04-0.23
					c-0.02-0.08-0.05-0.14-0.09-0.18c-0.04-0.05-0.1-0.07-0.17-0.08C229.51,144.65,229.42,144.68,229.31,144.74z"/>
				<path style="fill:#484B64;" d="M232.58,144.92c0-0.06-0.01-0.1-0.04-0.12c-0.02-0.02-0.07-0.03-0.13-0.03
					c-0.06,0-0.14,0.02-0.24,0.04c-0.1,0.03-0.23,0.06-0.38,0.09c-0.15,0.03-0.28,0.04-0.37,0.02c-0.1-0.02-0.18-0.07-0.24-0.14
					c-0.06-0.07-0.1-0.17-0.13-0.29c-0.02-0.12-0.04-0.26-0.04-0.42s0.02-0.33,0.07-0.51c0.05-0.18,0.12-0.36,0.21-0.53
					c0.09-0.17,0.2-0.33,0.33-0.48c0.13-0.15,0.28-0.27,0.45-0.37c0.17-0.1,0.32-0.15,0.45-0.17c0.13-0.02,0.24-0.01,0.34,0.03
					c0.09,0.04,0.16,0.11,0.21,0.2c0.05,0.09,0.08,0.2,0.09,0.32c0,0.06-0.01,0.11-0.04,0.17c-0.03,0.06-0.06,0.1-0.1,0.12
					l-0.39,0.23c-0.05,0.03-0.09,0.04-0.12,0.02c-0.03-0.01-0.05-0.03-0.09-0.05c-0.03-0.02-0.07-0.03-0.12-0.03
					c-0.05,0-0.13,0.03-0.23,0.09c-0.1,0.06-0.19,0.14-0.27,0.23c-0.08,0.09-0.12,0.2-0.12,0.32c0,0.06,0.01,0.1,0.03,0.13
					c0.02,0.03,0.05,0.04,0.11,0.04c0.05,0,0.13-0.01,0.22-0.03c0.09-0.02,0.22-0.05,0.37-0.09c0.3-0.08,0.52-0.04,0.64,0.1
					s0.19,0.37,0.19,0.69c0,0.16-0.03,0.33-0.08,0.51c-0.05,0.18-0.12,0.36-0.22,0.53c-0.1,0.17-0.22,0.34-0.36,0.49
					c-0.14,0.15-0.3,0.28-0.48,0.38c-0.18,0.1-0.34,0.16-0.48,0.18c-0.14,0.01-0.26,0-0.35-0.05c-0.09-0.05-0.17-0.13-0.22-0.23
					c-0.05-0.1-0.08-0.21-0.08-0.34c0-0.06,0.01-0.11,0.04-0.17c0.03-0.06,0.06-0.1,0.1-0.12l0.4-0.23
					c0.05-0.03,0.09-0.03,0.12-0.01c0.03,0.02,0.05,0.05,0.09,0.08c0.03,0.03,0.08,0.04,0.14,0.05c0.06,0,0.15-0.03,0.26-0.1
					c0.05-0.03,0.1-0.07,0.16-0.11c0.06-0.04,0.11-0.09,0.15-0.14c0.05-0.05,0.09-0.1,0.12-0.16
					C232.57,145.03,232.58,144.97,232.58,144.92z"/>
			</g>
			<g>
				<path style="fill:#484B64;" d="M167.05,181.74l1.16,0.53c0.03,0.02,0.07,0.04,0.11,0.08c0.04,0.04,0.06,0.09,0.06,0.17v0.67
					c0,0.05-0.01,0.09-0.03,0.14c-0.02,0.04-0.05,0.07-0.08,0.09c-0.01,0-0.01,0.01-0.02,0.01c-0.01,0-0.02,0-0.03,0l-1.79-0.83
					c-0.05-0.02-0.09-0.04-0.11-0.07c-0.03-0.03-0.04-0.09-0.04-0.17v-0.33c0-0.08,0.01-0.16,0.04-0.22
					c0.03-0.06,0.06-0.13,0.11-0.2l1.79-2.9c0.01-0.02,0.02-0.03,0.03-0.04c0.01-0.01,0.02-0.01,0.02-0.02
					c0.03-0.02,0.06-0.02,0.08,0c0.02,0.02,0.03,0.05,0.03,0.1v0.67c0,0.08-0.02,0.16-0.06,0.24c-0.04,0.08-0.07,0.15-0.11,0.2
					L167.05,181.74z"/>
				<path style="fill:#484B64;" d="M169.22,183.25c-0.04,0.02-0.07,0.02-0.1-0.01c-0.03-0.03-0.04-0.07-0.04-0.13v-5.1
					c0-0.06,0.01-0.12,0.04-0.17c0.03-0.06,0.06-0.1,0.1-0.12l1.51-0.87c0.22-0.13,0.4-0.18,0.55-0.16
					c0.15,0.02,0.26,0.08,0.35,0.18c0.09,0.1,0.15,0.23,0.19,0.39c0.04,0.16,0.06,0.32,0.06,0.48s-0.01,0.31-0.04,0.45
					c-0.03,0.14-0.06,0.26-0.1,0.37c-0.04,0.11-0.08,0.2-0.12,0.29c-0.04,0.08-0.07,0.14-0.09,0.17c0.11,0.05,0.2,0.15,0.29,0.3
					c0.09,0.15,0.13,0.38,0.13,0.69c0,0.2-0.02,0.41-0.07,0.64c-0.05,0.23-0.12,0.44-0.21,0.65c-0.09,0.21-0.21,0.41-0.34,0.58
					c-0.14,0.18-0.3,0.32-0.48,0.42L169.22,183.25z M171.19,178.18c0-0.2-0.04-0.33-0.12-0.38c-0.08-0.06-0.21-0.03-0.39,0.07
					l-0.91,0.52v1.22l0.91-0.52c0.18-0.1,0.31-0.23,0.39-0.38C171.15,178.56,171.19,178.38,171.19,178.18z M169.77,181.95l0.95-0.55
					c0.19-0.11,0.33-0.25,0.41-0.42c0.09-0.17,0.13-0.36,0.13-0.56c0-0.2-0.05-0.34-0.14-0.41c-0.09-0.07-0.23-0.06-0.41,0.05
					l-0.95,0.55V181.95z"/>
				<path style="fill:#484B64;" d="M172.55,178.24c0.01-0.12,0.05-0.25,0.1-0.41c0.05-0.16,0.12-0.31,0.21-0.48
					c0.09-0.16,0.2-0.32,0.33-0.46c0.13-0.15,0.28-0.27,0.46-0.37c0.17-0.1,0.33-0.16,0.47-0.17c0.14-0.01,0.26,0.02,0.36,0.1
					c0.1,0.08,0.18,0.21,0.23,0.38c0.05,0.18,0.08,0.4,0.08,0.67v2.32c0,0.06-0.01,0.12-0.04,0.17c-0.03,0.06-0.06,0.1-0.1,0.12
					l-0.39,0.23c-0.04,0.02-0.07,0.02-0.1-0.01c-0.03-0.03-0.04-0.07-0.04-0.13v-0.26c-0.07,0.19-0.18,0.38-0.31,0.57
					c-0.14,0.19-0.31,0.34-0.52,0.46c-0.15,0.08-0.28,0.13-0.39,0.14c-0.12,0.01-0.21-0.02-0.29-0.09
					c-0.08-0.06-0.14-0.16-0.18-0.29c-0.04-0.13-0.06-0.28-0.06-0.46c0-0.36,0.08-0.7,0.25-1c0.17-0.3,0.39-0.57,0.67-0.81l0.83-0.7
					c0-0.22-0.05-0.34-0.14-0.38c-0.09-0.04-0.21-0.01-0.34,0.06c-0.09,0.05-0.15,0.11-0.2,0.17c-0.05,0.06-0.09,0.14-0.14,0.23
					c-0.03,0.06-0.06,0.1-0.08,0.14c-0.03,0.03-0.05,0.06-0.08,0.07l-0.48,0.28c-0.03,0.02-0.06,0.02-0.09,0
					C172.55,178.33,172.54,178.29,172.55,178.24z M173.41,179.97c0.12-0.07,0.22-0.15,0.31-0.25c0.09-0.1,0.17-0.21,0.23-0.33
					c0.06-0.12,0.11-0.24,0.14-0.36c0.03-0.12,0.05-0.24,0.05-0.35v-0.08l-0.7,0.59c-0.14,0.12-0.24,0.23-0.3,0.34
					c-0.06,0.11-0.09,0.22-0.09,0.34c0,0.11,0.04,0.17,0.11,0.18C173.22,180.05,173.31,180.03,173.41,179.97z"/>
				<path style="fill:#484B64;" d="M176.02,177c-0.01,0.08-0.01,0.18-0.01,0.28c0,0.11,0,0.2,0.01,0.27
					c0.01,0.16,0.03,0.28,0.07,0.38c0.04,0.09,0.09,0.16,0.14,0.2c0.06,0.04,0.12,0.05,0.19,0.05c0.07-0.01,0.14-0.03,0.21-0.07
					c0.09-0.05,0.16-0.1,0.22-0.16c0.06-0.05,0.11-0.11,0.15-0.18c0.04-0.06,0.08-0.13,0.1-0.19c0.03-0.07,0.06-0.14,0.09-0.22
					c0.02-0.06,0.04-0.12,0.07-0.18c0.03-0.06,0.06-0.11,0.1-0.13l0.39-0.22c0.04-0.02,0.07-0.02,0.1,0.01
					c0.03,0.02,0.04,0.07,0.04,0.13c0,0.11-0.03,0.26-0.08,0.45c-0.05,0.19-0.12,0.38-0.22,0.58c-0.1,0.2-0.23,0.4-0.39,0.59
					c-0.16,0.19-0.34,0.35-0.56,0.47c-0.19,0.11-0.36,0.16-0.51,0.15c-0.15-0.01-0.28-0.07-0.39-0.17c-0.11-0.1-0.2-0.24-0.26-0.43
					c-0.06-0.18-0.1-0.39-0.12-0.62c-0.01-0.09-0.01-0.19-0.01-0.31c0-0.12,0-0.23,0.01-0.33c0.01-0.25,0.05-0.5,0.11-0.76
					c0.07-0.26,0.15-0.5,0.26-0.73c0.11-0.23,0.24-0.44,0.39-0.62c0.15-0.19,0.32-0.33,0.51-0.44c0.22-0.13,0.41-0.18,0.56-0.18
					s0.29,0.06,0.39,0.14c0.1,0.09,0.17,0.19,0.22,0.32c0.05,0.13,0.07,0.25,0.08,0.36c0,0.06-0.01,0.11-0.04,0.17
					c-0.03,0.06-0.06,0.1-0.1,0.12l-0.39,0.22c-0.04,0.02-0.07,0.02-0.1-0.01c-0.03-0.03-0.05-0.07-0.07-0.1
					c-0.03-0.05-0.06-0.09-0.09-0.12c-0.03-0.03-0.06-0.06-0.1-0.07c-0.04-0.02-0.09-0.02-0.15-0.01c-0.06,0.01-0.13,0.04-0.22,0.09
					c-0.07,0.04-0.14,0.1-0.21,0.17c-0.07,0.07-0.13,0.16-0.19,0.27c-0.06,0.1-0.1,0.22-0.14,0.36
					C176.05,176.68,176.03,176.83,176.02,177z"/>
				<path style="fill:#484B64;" d="M179.1,175.98v1.36c0,0.06-0.01,0.12-0.04,0.17c-0.03,0.06-0.06,0.1-0.1,0.12l-0.39,0.22
					c-0.04,0.02-0.07,0.02-0.1-0.01c-0.03-0.03-0.04-0.07-0.04-0.13v-5.18c0-0.06,0.01-0.12,0.04-0.17c0.03-0.06,0.06-0.1,0.1-0.12
					l0.39-0.22c0.04-0.02,0.07-0.02,0.1,0.01c0.03,0.03,0.04,0.07,0.04,0.13v2.49l0.86-1.56c0.02-0.04,0.05-0.08,0.08-0.13
					c0.03-0.05,0.07-0.09,0.12-0.12l0.52-0.3c0.03-0.02,0.06-0.02,0.09,0c0.02,0.02,0.03,0.06,0.03,0.11c0,0.03,0,0.05-0.01,0.08
					c0,0.03-0.02,0.06-0.05,0.11l-1.19,2.17l1.31,1.18c0.02,0.02,0.03,0.04,0.04,0.05c0.01,0.02,0.01,0.04,0.01,0.06
					c0,0.05-0.01,0.11-0.04,0.16c-0.03,0.05-0.05,0.09-0.09,0.11l-0.5,0.29c-0.05,0.03-0.09,0.04-0.13,0.03
					c-0.04-0.01-0.06-0.02-0.08-0.04L179.1,175.98z"/>
			</g>
			<g>
				<g>
					<path style="fill:#484B64;" d="M262.06,124.3c-0.09,0-0.18-0.05-0.23-0.13c-0.07-0.13-0.03-0.29,0.1-0.36l6.53-3.77
						c0.12-0.07,0.28-0.03,0.36,0.1c0.07,0.13,0.03,0.29-0.1,0.36l-6.53,3.77C262.15,124.29,262.1,124.3,262.06,124.3z"/>
				</g>
				<g>
					<path style="fill:#484B64;" d="M262.06,127.18c-0.09,0-0.18-0.05-0.23-0.13c-0.07-0.13-0.03-0.29,0.1-0.36l6.53-3.77
						c0.12-0.07,0.28-0.03,0.36,0.1c0.07,0.13,0.03,0.29-0.1,0.36l-6.53,3.77C262.15,127.17,262.1,127.18,262.06,127.18z"/>
				</g>
				<g>
					<path style="fill:#484B64;" d="M262.06,130.07c-0.09,0-0.18-0.05-0.23-0.13c-0.07-0.13-0.03-0.29,0.1-0.36l6.53-3.77
						c0.12-0.07,0.28-0.03,0.36,0.1c0.07,0.13,0.03,0.29-0.1,0.36l-6.53,3.77C262.15,130.06,262.1,130.07,262.06,130.07z"/>
				</g>
				<g>
					<path style="fill:#484B64;" d="M262.03,123.06c0.46-0.26,0.83-0.05,0.83,0.48c0,0.53-0.37,1.17-0.83,1.42
						c-0.46,0.26-0.83,0.05-0.83-0.48C261.2,123.96,261.58,123.33,262.03,123.06z"/>
				</g>
				<g>
					<path style="fill:#484B64;" d="M267.08,123.06c0.46-0.26,0.83-0.05,0.83,0.48c0,0.53-0.37,1.17-0.83,1.42
						c-0.46,0.26-0.83,0.05-0.83-0.48C266.25,123.96,266.62,123.33,267.08,123.06z"/>
				</g>
				<g>
					<path style="fill:#484B64;" d="M264.87,127.23c0.46-0.26,0.83-0.05,0.83,0.48s-0.37,1.17-0.83,1.42
						c-0.46,0.26-0.83,0.05-0.83-0.48C264.05,128.14,264.42,127.5,264.87,127.23z"/>
				</g>
			</g>
			<polygon style="fill:#484B64;" points="201.29,156.24 234.37,138.16 234.37,148.9 201.92,166.13 			"/>
		</g>
		<g>
			<g id="XMLID_346_">
				<path id="XMLID_398_" style="fill:#484B64;" d="M180.46,159.45c-0.02-0.03-0.04-0.08-0.04-0.17v-0.83l-1.3,0.75
					c-0.07,0.04-0.11,0-0.11-0.12v-0.3c0-0.07,0-0.12,0.01-0.16c0.01-0.04,0.02-0.09,0.05-0.16l1.38-3.77
					c0.03-0.07,0.05-0.12,0.07-0.15c0.02-0.03,0.05-0.06,0.09-0.08l0.18-0.1c0.05-0.03,0.09-0.03,0.12,0
					c0.02,0.03,0.04,0.09,0.04,0.18v2.9l0.29-0.17c0.06-0.03,0.09-0.03,0.11-0.01c0.02,0.03,0.03,0.09,0.03,0.18v0.2
					c0,0.09-0.01,0.16-0.03,0.21c-0.02,0.05-0.06,0.09-0.11,0.12l-0.29,0.17v0.83c0,0.09-0.01,0.16-0.03,0.21
					c-0.02,0.05-0.06,0.1-0.12,0.13l-0.22,0.12C180.52,159.48,180.49,159.48,180.46,159.45z M180.51,157.7v-2.07l-0.94,2.61
					L180.51,157.7z"/>
				<path id="XMLID_347_" style="fill:#484B64;" d="M182.01,158.06c-0.25-0.3-0.38-0.87-0.38-1.7c0-0.83,0.13-1.54,0.38-2.13
					c0.26-0.6,0.61-1.03,1.08-1.29c0.19-0.11,0.36-0.17,0.52-0.2c0.16-0.03,0.29-0.01,0.4,0.06c0.02,0.01,0.04,0.04,0.04,0.07
					c0,0.02-0.01,0.06-0.02,0.1l-0.12,0.43c-0.02,0.05-0.03,0.09-0.05,0.1c-0.01,0-0.03,0-0.05-0.01c-0.19-0.08-0.41-0.04-0.66,0.11
					c-0.31,0.18-0.56,0.48-0.73,0.89c-0.18,0.42-0.27,0.94-0.27,1.58c0,0.64,0.09,1.07,0.26,1.28c0.17,0.21,0.41,0.23,0.71,0.06
					c0.11-0.06,0.22-0.14,0.32-0.23c0.1-0.09,0.19-0.19,0.25-0.28v-1.35l-0.54,0.31c-0.06,0.03-0.09,0.03-0.11,0
					c-0.02-0.03-0.03-0.09-0.03-0.18v-0.19c0-0.09,0.01-0.16,0.03-0.21c0.02-0.05,0.06-0.09,0.11-0.12l0.86-0.5
					c0.06-0.03,0.1-0.03,0.13,0c0.03,0.04,0.04,0.11,0.04,0.21v1.92c0,0.07,0,0.13-0.01,0.17c-0.01,0.04-0.03,0.08-0.05,0.13
					c-0.25,0.43-0.59,0.76-1.02,1.01C182.62,158.38,182.26,158.36,182.01,158.06z"/>
			</g>
			<g id="XMLID_306_">
				<g id="XMLID_439_">
					<path id="XMLID_486_" style="fill:#484B64;" d="M192.95,151.43c0,0.64-0.34,1.36-0.75,1.6c-0.42,0.24-0.75-0.08-0.75-0.73
						s0.34-1.36,0.75-1.6C192.61,150.47,192.95,150.79,192.95,151.43z"/>
				</g>
				<g id="XMLID_435_">
					<g id="XMLID_436_">
						<path id="XMLID_437_" style="fill:#484B64;" d="M192.2,148.81c-0.76,0.44-1.42,1.48-1.75,2.63c-0.07,0.23-0.03,0.46,0.08,0.53
							l0,0c0.14,0.09,0.35-0.1,0.44-0.39c0.23-0.82,0.7-1.55,1.23-1.86c0.54-0.31,1-0.11,1.23,0.43c0.08,0.2,0.3,0.14,0.44-0.11l0,0
							c0.11-0.2,0.15-0.46,0.08-0.62C193.62,148.65,192.96,148.37,192.2,148.81z"/>
					</g>
				</g>
				<g id="XMLID_418_">
					<g id="XMLID_420_">
						<path id="XMLID_433_" style="fill:#484B64;" d="M192.2,146.95c-1.13,0.65-2.12,2.13-2.69,3.83c-0.08,0.25-0.06,0.5,0.06,0.58
							l0,0c0.14,0.09,0.34-0.08,0.43-0.37c0.46-1.39,1.27-2.6,2.2-3.13c0.92-0.53,1.74-0.26,2.2,0.6c0.09,0.17,0.29,0.12,0.43-0.13
							l0,0c0.12-0.22,0.15-0.5,0.06-0.65C194.33,146.64,193.33,146.3,192.2,146.95z"/>
					</g>
				</g>
			</g>
			<g>
				<path style="fill:#484B64;" d="M211.89,138.34c-0.02-0.03-0.03-0.08-0.03-0.14c0.01-0.06,0.02-0.12,0.05-0.17l1.08-1.94
					c0.03-0.05,0.05-0.09,0.08-0.14c0.03-0.04,0.06-0.08,0.09-0.1l0.39-0.22c0.04-0.02,0.07-0.02,0.1,0.01
					c0.03,0.03,0.04,0.07,0.04,0.12v4.96c0,0.06-0.01,0.11-0.04,0.17c-0.03,0.06-0.06,0.1-0.1,0.12l-0.4,0.23
					c-0.04,0.02-0.07,0.02-0.09-0.01c-0.03-0.02-0.04-0.07-0.04-0.12v-3.79l-0.71,1.26c-0.03,0.05-0.06,0.09-0.1,0.1
					c-0.03,0.01-0.07,0-0.09-0.03L211.89,138.34z"/>
				<path style="fill:#484B64;" d="M214.41,136.88c-0.02-0.03-0.03-0.08-0.03-0.14c0-0.06,0.02-0.11,0.05-0.17l1.08-1.94
					c0.03-0.05,0.05-0.09,0.08-0.14c0.03-0.04,0.06-0.08,0.09-0.09l0.39-0.23c0.04-0.02,0.07-0.02,0.1,0.01
					c0.03,0.03,0.04,0.07,0.04,0.12v4.96c0,0.06-0.01,0.11-0.04,0.17c-0.03,0.06-0.06,0.1-0.1,0.12l-0.4,0.23
					c-0.04,0.02-0.07,0.02-0.1-0.01c-0.03-0.03-0.04-0.07-0.04-0.12v-3.79l-0.71,1.26c-0.03,0.05-0.06,0.09-0.1,0.1
					c-0.04,0.01-0.07,0-0.09-0.03L214.41,136.88z"/>
				<path style="fill:#484B64;" d="M217.72,134.75c0.04-0.02,0.07-0.02,0.1,0.01c0.03,0.03,0.04,0.07,0.04,0.12v0.75
					c0,0.06-0.01,0.11-0.04,0.17c-0.03,0.06-0.06,0.09-0.1,0.12l-0.46,0.27c-0.04,0.02-0.07,0.02-0.1-0.01
					c-0.03-0.02-0.04-0.07-0.04-0.12v-0.75c0-0.06,0.01-0.11,0.04-0.17c0.03-0.06,0.06-0.09,0.1-0.12L217.72,134.75z M217.72,137.44
					c0.04-0.02,0.07-0.02,0.1,0.01c0.03,0.03,0.04,0.07,0.04,0.12v0.75c0,0.06-0.01,0.11-0.04,0.17c-0.03,0.06-0.06,0.09-0.1,0.12
					l-0.46,0.27c-0.04,0.02-0.07,0.02-0.1-0.01c-0.03-0.02-0.04-0.07-0.04-0.12v-0.75c0-0.06,0.01-0.11,0.04-0.17
					c0.03-0.06,0.06-0.09,0.1-0.12L217.72,137.44z"/>
				<path style="fill:#484B64;" d="M220.39,137.07c-0.04,0.02-0.07,0.02-0.1-0.01c-0.03-0.02-0.04-0.07-0.04-0.12v-0.93l-1.55,0.89
					c-0.04,0.02-0.07,0.02-0.09-0.01c-0.03-0.03-0.04-0.07-0.04-0.12v-0.54c0-0.07,0.01-0.14,0.03-0.21
					c0.02-0.07,0.05-0.14,0.08-0.22l1.53-3.81c0.07-0.17,0.13-0.27,0.2-0.31l0.38-0.22c0.04-0.02,0.07-0.02,0.1,0.01
					c0.03,0.03,0.04,0.07,0.04,0.12v3.07l0.43-0.25c0.04-0.02,0.07-0.02,0.09,0.01c0.03,0.03,0.04,0.07,0.04,0.12v0.55
					c0,0.06-0.01,0.11-0.04,0.17c-0.03,0.06-0.06,0.09-0.09,0.12l-0.43,0.25v0.93c0,0.06-0.01,0.11-0.04,0.17
					c-0.03,0.06-0.06,0.1-0.1,0.12L220.39,137.07z M220.25,135.05v-1.64l-0.85,2.14L220.25,135.05z"/>
				<path style="fill:#484B64;" d="M222.39,130.74c0-0.06,0.01-0.11,0.04-0.17c0.03-0.06,0.06-0.09,0.09-0.12l1.87-1.08
					c0.04-0.02,0.07-0.02,0.1,0.01c0.03,0.03,0.04,0.07,0.04,0.12v0.55c0,0.06-0.01,0.11-0.04,0.17c-0.03,0.06-0.06,0.1-0.1,0.12
					l-1.4,0.81l-0.05,1.02c0.09-0.11,0.18-0.19,0.27-0.25c0.09-0.06,0.16-0.11,0.22-0.14c0.19-0.11,0.36-0.17,0.52-0.18
					c0.16-0.02,0.3,0.02,0.41,0.1c0.12,0.08,0.21,0.22,0.27,0.4c0.07,0.18,0.1,0.42,0.1,0.7c0,0.33-0.03,0.63-0.1,0.9
					c-0.07,0.27-0.16,0.52-0.28,0.74c-0.12,0.22-0.26,0.41-0.42,0.57c-0.16,0.16-0.33,0.29-0.51,0.4c-0.23,0.13-0.43,0.21-0.59,0.22
					c-0.16,0.01-0.3-0.02-0.41-0.1c-0.11-0.08-0.19-0.19-0.24-0.34c-0.06-0.15-0.09-0.32-0.09-0.52c0-0.06,0.01-0.12,0.04-0.17
					c0.03-0.06,0.06-0.09,0.1-0.11l0.4-0.23c0.03-0.02,0.06-0.02,0.09,0c0.03,0.02,0.04,0.05,0.06,0.1
					c0.02,0.11,0.05,0.19,0.09,0.23c0.04,0.05,0.09,0.08,0.15,0.09c0.06,0.01,0.12,0,0.19-0.02c0.07-0.02,0.14-0.06,0.22-0.1
					c0.19-0.11,0.34-0.28,0.46-0.5c0.12-0.23,0.17-0.48,0.17-0.75c0-0.23-0.06-0.39-0.17-0.48c-0.12-0.09-0.27-0.08-0.46,0.03
					c-0.1,0.06-0.18,0.11-0.24,0.17c-0.06,0.06-0.11,0.11-0.14,0.16c-0.04,0.05-0.07,0.1-0.1,0.14c-0.03,0.04-0.07,0.07-0.11,0.1
					l-0.46,0.26c-0.04,0.02-0.07,0.02-0.09-0.01c-0.03-0.03-0.04-0.07-0.04-0.12L222.39,130.74z"/>
			</g>
			<g>
				<polygon style="fill:#484B64;" points="166.12,168.35 166.12,166.75 167.5,165.95 167.5,167.55 				"/>
				<polygon style="fill:#484B64;" points="168.2,167.15 168.2,163.95 169.58,163.15 169.58,166.35 				"/>
				<polygon style="fill:#484B64;" points="170.27,165.95 170.27,161.15 171.66,160.35 171.66,165.15 				"/>
				<polygon style="fill:#484B64;" points="172.35,164.75 172.35,158.35 173.74,157.55 173.74,163.95 				"/>
			</g>
			<g id="XMLID_302_">
				<path id="XMLID_652_" style="fill:#484B64;" d="M269.69,103.36c-0.15-0.21-0.33-0.27-0.51-0.17l-5.18,2.98
					c-0.34,0.19-0.6,0.88-0.6,1.57v2.91c0,0.38,0.08,0.71,0.23,0.93c0.06,0.09,0.13,0.16,0.21,0.19c0.1,0.04,0.2,0.04,0.31-0.02
					l5.18-2.98c0.34-0.19,0.6-0.88,0.6-1.57v-2.91C269.91,103.91,269.83,103.58,269.69,103.36z M263.77,111.21
					c-0.05-0.08-0.08-0.23-0.08-0.43v-2.91c0-0.51,0.21-1.06,0.46-1.2l5.18-2.98c0.06-0.03,0.12-0.04,0.16-0.02
					c0.03,0.01,0.05,0.03,0.07,0.06c0.05,0.08,0.08,0.23,0.08,0.42v2.91c0,0.51-0.21,1.06-0.46,1.2l-5.18,2.98
					C263.9,111.3,263.82,111.29,263.77,111.21z"/>
				<g id="XMLID_620_">
					<path style="fill:#484B64;" d="M265.12,106.61v3.44l-0.81,0.47c-0.07,0.04-0.16-0.01-0.16-0.09v-2.56
						c0-0.37,0.16-0.78,0.34-0.89L265.12,106.61z"/>
					<polygon style="fill:#484B64;" points="265.5,106.4 266.47,105.84 266.47,109.28 265.5,109.84 					"/>
					<polygon style="fill:#484B64;" points="266.85,105.63 267.82,105.06 267.82,108.52 266.85,109.07 					"/>
					<path style="fill:#484B64;" d="M269.17,104.52V107c0,0.46-0.25,0.88-0.64,1.11l-0.33,0.19v-3.44l0.77-0.45
						C269.06,104.36,269.17,104.42,269.17,104.52z"/>
				</g>
				<g id="XMLID_599_">
					<path id="XMLID_601_" style="fill:#484B64;" d="M270.11,104.2c0.14-0.08,0.26,0.33,0.26,0.93v0.54c0,0.6-0.12,1.16-0.26,1.26
						l-0.26,0.18l0.01-2.75C269.85,104.35,269.96,104.28,270.11,104.2z"/>
				</g>
			</g>
			<polygon style="fill:#484B64;" points="255.54,112.99 260.57,108.52 259.02,115.07 258.29,112.35 			"/>
		</g>
	</g>
</g>
<g id="Character">
	<g id="Character_6_">
		<g id="XMLID_908_">
			<g>
				<path style="fill:#484B64;" d="M322.62,414.64c-0.35,0.11-0.41,2.15-0.09,2.82c0.35,0.74,2.57,3.19,7.1,4.08
					c4.52,0.89,10.75-0.02,13.42-0.16c2.67-0.14,11.09,0.86,13.76,1.22c4.2,0.57,7.43-0.35,8.99-1.87c0.61-0.6,0.66-1.47,0.63-2.21
					c-0.07-1.77-0.24-2.13-0.45-2.11L322.62,414.64z"/>
				<g id="XMLID_697_">
					<g id="XMLID_698_">
						<path id="XMLID_704_" style="fill:#3786DE;" d="M365.28,411.13c0.08,0.35,0.16,0.7,0.23,1.05c0.33,1.74,0.62,3.68,0.39,5.45
							c-0.54,1.33-2.03,2.06-3.23,2.44c-3.16,1-5.57,0.84-9.07,0.18c-2.1-0.4-8.14-0.82-10.65-0.65c-2.76,0.19-6.55,0.71-9.31,0.46
							c-2.36-0.22-4.67-0.46-6.85-1.4c-1.84-0.79-3.72-1.8-4.17-3.69c-0.17-3.45,1.57-5.12,3.46-6.23c2-1.17,4.61-1.49,6.93-1.49
							c2.61,0,4.58,0.34,6.89,0.16c1.57-0.12,4.43-0.35,5.95-0.83c1.74-0.55,3.17-0.66,3.84-2.37c0.33-0.84,0.5-1.55,1.24-1.63
							c0,0,10.92-0.27,12.03-0.18c1.28,0.11,1.51,4.52,1.67,5.37c0.12,0.67,0.15,1.4,0.33,2.05
							C365.07,410.26,365.18,410.69,365.28,411.13z"/>
					</g>
				</g>
				<g id="XMLID_694_" style="opacity:0.35;">
					<path id="XMLID_696_" d="M365.28,411.13c0.08,0.35,0.16,0.7,0.23,1.05c0.33,1.74,0.62,3.68,0.39,5.45
						c-0.54,1.33-2.03,2.06-3.23,2.44c-3.16,1-5.57,0.84-9.07,0.18c-2.1-0.4-8.14-0.82-10.65-0.65c-2.76,0.19-6.55,0.71-9.31,0.46
						c-2.36-0.22-4.67-0.46-6.85-1.4c-1.84-0.79-3.72-1.8-4.17-3.69c-0.17-3.45,1.57-5.12,3.46-6.23c2-1.17,4.61-1.49,6.93-1.49
						c2.61,0,4.58,0.34,6.89,0.16c1.57-0.12,4.43-0.35,5.95-0.83c1.74-0.55,3.17-0.66,3.84-2.37c0.33-0.84,0.5-1.55,1.24-1.63
						c0,0,10.92-0.27,12.03-0.18c1.28,0.11,1.51,4.52,1.67,5.37c0.12,0.67,0.15,1.4,0.33,2.05
						C365.07,410.26,365.18,410.69,365.28,411.13z"/>
				</g>
				<path style="fill:#FAFAFA;" d="M343.89,407c-2.5,1.91-2.84,4.91-2.84,4.91c0.07,1.33-2.28,1.45-2.35,0.12
					c0,0,0.46-2.73,2.07-4.69C340.77,407.33,342.41,406.64,343.89,407z"/>
				<path style="fill:#FAFAFA;" d="M338.66,407.46c0,0-1.8,1.4-2.52,4.51c-0.03,0.99-2.08,0.9-2.05-0.09c0,0,0.28-3.16,2.53-4.49
					C337.27,406.95,338.45,407.07,338.66,407.46z"/>
			</g>
			<path id="XMLID_951_" style="fill:#484B64;" d="M370,379.39c-0.35,3.75-0.44,4.75,0.48,7.2c1.32,3.52,3.66,5.14,5.24,6.51
				c1.58,1.37,3.35,3.4,4.64,5.4c1.14,1.77,2.44,3.81,4.84,5.81c1.5,1.25,5.66,1.28,7.65,0.4c1.99-0.88,2.64-1.65,2.46-4.85
				c-0.18-3.12-9.91-4.09-9.91-4.09L370,379.39z"/>
			<path id="XMLID_950_" style="fill:#3786DE;" d="M393.86,390.34c0.83,0.3,1.07,1.87,1.26,5c0.14,2.37,1.21,5.82-2.03,7.38
				c-2.61,1.26-6.84,0.54-8.66-1.66c-2.28-2.75-3.83-5.17-7.07-8.51c-2.81-2.9-5.69-3.84-7.03-9.71c-0.86-3.78-0.28-5.36,2.26-6.5
				c3.48-1.57,9.1,3.21,11.86,3.93C386.82,380.88,393.02,390.05,393.86,390.34z"/>
			<path id="XMLID_949_" style="opacity:0.4;" d="M393.86,390.34c0.83,0.3,1.07,1.87,1.26,5c0.14,2.37,1.21,5.82-2.03,7.38
				c-2.61,1.26-6.84,0.54-8.66-1.66c-2.28-2.75-3.83-5.17-7.07-8.51c-2.81-2.9-5.69-3.84-7.03-9.71c-0.86-3.78-0.28-5.36,2.26-6.5
				c3.48-1.57,9.1,3.21,11.86,3.93C386.82,380.88,393.02,390.05,393.86,390.34z"/>
			<path id="XMLID_948_" style="fill:#FAFAFA;" d="M384.44,380.27c-0.15-0.04-0.31-0.09-0.47-0.15c-5.06,0.54-7.01,4.07-7.5,5.14
				c-0.45,1.04,1.01,1.82,1.85,1c1.88-3.94,5.9-4.88,7.5-5.11C385.29,380.69,384.82,380.36,384.44,380.27z"/>
			<path id="XMLID_947_" style="fill:#FAFAFA;" d="M386.75,382.01c-4.67,0.72-6.49,4.06-6.96,5.08c-0.45,1.04,1.01,1.82,1.85,1
				c1.49-3.12,4.33-4.36,6.24-4.86C387.49,382.79,387.11,382.38,386.75,382.01z"/>
			<g id="XMLID_915_">
				<path id="XMLID_916_" style="fill:#B17E6D;" d="M394.24,384.01l-0.39,7.72c-0.31,1.74-10.06,2.52-10.38-0.43
					c-0.18-0.37-0.56-6.63-0.56-6.63L394.24,384.01z"/>
			</g>
			<path style="fill:#B17E6D;" d="M394.05,387.73c0.83-11.9,6.18-39.6,5.19-57.41l-22.25,2.35c0,0,1.5,11.95,2.71,25.17
				c1.2,13.22,3.77,33.46,3.77,33.46L394.05,387.73z"/>
			<g id="XMLID_913_">
				<path id="XMLID_914_" style="fill:#B17E6D;" d="M363.69,398.42c0,0-0.11,2.85-0.16,4.49c-0.04,1.63-2.06,3.99-7.04,3.64
					c-3.5-0.25-5.91-1.28-5.67-4.16l0.15-4.16L363.69,398.42z"/>
			</g>
			<path style="fill:#B17E6D;" d="M363.54,402.41c1.75-15.52,4.39-39.53,4.74-48c0.29-6.8-0.73-15.84-2.44-20.62l-21.36,1.99
				l6.37,65.44L363.54,402.41z"/>
			<g id="XMLID_911_">
				<path id="XMLID_711_" style="fill:#3786DE;" d="M368.87,353.08c0.67-11.02-2.44-19.75-2.44-19.75s4.93-41.13,5.69-47.75
					c0,0,1.04,11.8,1.89,20.78c0.86,8.98,1.54,16.66,3.81,35.23c12.5,4.8,21.68-0.96,21.68-0.96c0.17-2.3,0.26-4.22,0.27-5.6
					c0.02-12.64-2.46-18.76-2.46-18.76s0.95-15.39,1.94-35.72c1.44-29.37,0.02-33.33-6.01-46.36c0,0-47.65-5.53-48.74,14.94
					c-1.36,25.49-1.59,77.43-0.73,86.41c0.66,6.94,1.1,12.25,2.35,19.34C346.12,354.87,358.55,359.04,368.87,353.08z"/>
			</g>
			<path id="XMLID_715_" style="opacity:0.6;fill:#FFFFFF;stroke:#FFFFFF;stroke-miterlimit:10;" d="M368.87,353.08
				c0.67-11.02-2.44-19.75-2.44-19.75s4.93-41.13,5.69-47.75c0,0,1.04,11.8,1.89,20.78c0.86,8.98,1.54,16.66,3.81,35.23
				c12.5,4.8,21.68-0.96,21.68-0.96c0.17-2.3,0.26-4.22,0.27-5.6c0.02-12.64-2.46-18.76-2.46-18.76s0.95-15.39,1.94-35.72
				c1.44-29.37,0.02-33.33-6.01-46.36c0,0-47.65-5.53-48.74,14.94c-1.36,25.49-1.59,77.43-0.73,86.41
				c0.66,6.94,1.1,12.25,2.35,19.34C346.12,354.87,358.55,359.04,368.87,353.08z"/>
			<g>
				<path style="fill:#3786DE;" d="M377.29,337.19c-0.98,0-1.25,0.87-0.84,4.04c0.33,2.54,0.88,7.13,1.34,7.86
					c0.72,1.14,5.77,2.51,11.22,2.21c7.19-0.39,10.14-1.93,10.59-2.91c0.49-1.06,0.98-6.71,1.11-8.69c0.14-2.14-0.02-3.12-0.95-3.27
					l-0.11,1.72c0,0-2.35,2.86-11.23,2.98c-8.93,0.12-10.94-2.23-10.94-2.23L377.29,337.19z"/>
				<path style="opacity:0.5;fill:#FFFFFF;stroke:#FFFFFF;stroke-miterlimit:10;" d="M377.29,337.19c-0.98,0-1.25,0.87-0.84,4.04
					c0.33,2.54,0.88,7.13,1.34,7.86c0.72,1.14,5.77,2.51,11.22,2.21c7.19-0.39,10.14-1.93,10.59-2.91c0.49-1.06,0.98-6.71,1.11-8.69
					c0.14-2.14-0.02-3.12-0.95-3.27l-0.11,1.72c0,0-2.35,2.86-11.23,2.98c-8.93,0.12-10.94-2.23-10.94-2.23L377.29,337.19z"/>
				<path style="opacity:0.1;" d="M377.29,337.19c-0.98,0-1.25,0.87-0.84,4.04c0.33,2.54,0.88,7.13,1.34,7.86
					c0.72,1.14,5.77,2.51,11.22,2.21c7.19-0.39,10.14-1.93,10.59-2.91c0.49-1.06,0.98-6.71,1.11-8.69c0.14-2.14-0.02-3.12-0.95-3.27
					l-0.11,1.72c0,0-2.35,2.86-11.23,2.98c-8.93,0.12-10.94-2.23-10.94-2.23L377.29,337.19z"/>
			</g>
			<g style="opacity:0.1;">
				<path d="M349.79,354.11c-0.01-0.07-0.64-7.1-1.73-26.1c-1.08-18.68-0.41-61.06,1.73-77.2l0.99,0.13
					c-2.13,16.1-2.8,58.38-1.73,77.02c1.09,18.97,1.72,26,1.73,26.06L349.79,354.11z"/>
			</g>
			<g>
				<path style="fill:#3786DE;" d="M345.03,347.66c-1.47,0.57-1.12,1.37-0.53,5.09c0.58,3.72,0.4,4.98,1.1,6.01
					c0.69,1.03,4.75,2.33,12.43,2.06c7.69-0.27,11.36-3.02,11.74-3.86c0.38-0.84,0.35-2.76,0.18-5.52
					c-0.17-2.76,0.19-5.37-1.12-5.25l0.1,2c0,0-3.44,2.95-10.68,3.25c-9.31,0.39-12.92-1.53-12.92-1.53L345.03,347.66z"/>
				<path style="opacity:0.5;fill:#FFFFFF;stroke:#FFFFFF;stroke-miterlimit:10;" d="M345.03,347.66c-1.47,0.57-1.12,1.37-0.53,5.09
					c0.58,3.72,0.4,4.98,1.1,6.01c0.69,1.03,4.75,2.33,12.43,2.06c7.69-0.27,11.36-3.02,11.74-3.86c0.38-0.84,0.35-2.76,0.18-5.52
					c-0.17-2.76,0.19-5.37-1.12-5.25l0.1,2c0,0-3.44,2.95-10.68,3.25c-9.31,0.39-12.92-1.53-12.92-1.53L345.03,347.66z"/>
				<path style="opacity:0.1;" d="M345.03,347.66c-1.47,0.57-1.12,1.37-0.53,5.09c0.58,3.72,0.4,4.98,1.1,6.01
					c0.69,1.03,4.75,2.33,12.43,2.06c7.69-0.27,11.36-3.02,11.74-3.86c0.38-0.84,0.35-2.76,0.18-5.52
					c-0.17-2.76,0.19-5.37-1.12-5.25l0.1,2c0,0-3.44,2.95-10.68,3.25c-9.31,0.39-12.92-1.53-12.92-1.53L345.03,347.66z"/>
			</g>
			<path style="opacity:0.1;" d="M368.87,270.52c-3.22,0-8.54-2.79-9.56-4.29c-0.92-1.34-0.82-4.39-0.63-9.94
				c0.06-1.76,0.12-3.77,0.17-6.04l0.01-0.47l18.57-0.66l0.07,0.44c0.2,1.38,1.93,13.51,0.24,15.93
				C376.73,266.94,372.1,270.52,368.87,270.52z M359.83,250.74c-0.04,2.08-0.11,3.94-0.16,5.58c-0.17,5.16-0.27,8.27,0.46,9.34
				c0.79,1.15,5.83,3.86,8.74,3.86c2.8,0,7.09-3.23,8.04-4.6c1.08-1.55,0.4-9.51-0.35-14.77L359.83,250.74z"/>
			<path style="opacity:0.1;" d="M397.11,265.77c-1.23-0.23-5.99-2.84-6.3-3.57c-0.06-0.23-0.09-0.97-0.13-1.91
				c-0.1-2.4-0.28-6.86-1.3-12.13l-0.98,0.19c1,5.2,1.18,9.61,1.28,11.98c0.05,1.11,0.07,1.79,0.16,2.12c0.34,1.36,6,4.1,7.08,4.31
				c0.07,0.01,0.14,0.02,0.21,0.02c0.74,0,1.73-0.63,2.62-1.36c0-0.45,0.01-0.9,0.01-1.34
				C398.65,265.07,397.53,265.85,397.11,265.77z"/>
			<path id="XMLID_909_" style="fill:#3786DE;" d="M372.12,285.57l0.62-8.41c0,0,7.32-2.4,15.01-7.53c0,0-3.36,6.66-12.09,9.17
				l-1.51,8.25l-0.13,19.3L372.12,285.57z"/>
			<path id="XMLID_707_" style="opacity:0.5;fill:#FFFFFF;" d="M372.12,285.57l0.62-8.41c0,0,7.32-2.4,15.01-7.53
				c0,0-3.36,6.66-12.09,9.17l-1.51,8.25l-0.13,19.3L372.12,285.57z"/>
			<path id="XMLID_710_" style="opacity:0.1;" d="M372.12,285.57l0.62-8.41c0,0,7.32-2.4,15.01-7.53c0,0-3.36,6.66-12.09,9.17
				l-1.51,8.25l-0.13,19.3L372.12,285.57z"/>
		</g>
		<g>
			<g id="XMLID_706_">
				<path id="XMLID_712_" style="fill:#B17E6D;" d="M384.6,175.7c8.64-0.75,13.35,2.4,16.98,11.25
					c3.63,8.85,10.54,29.33,11.97,35.26c0.62,2.58,0.27,3.87-0.57,5.25c-4.24,6.95-18.32,22.87-17.72,22.58
					c0.22-0.11-6.55-11.44-6.55-11.44l9.76-15.02l-6.11-16.31L384.6,175.7z"/>
			</g>
			<path style="fill:#3786DE;" d="M383.46,175.73c0,0,3.86-0.8,7.12-0.13c3.26,0.67,5.57,1.47,8.71,6.26s9.25,22.78,10.85,29.08
				c0,0-4.04,5.11-14.15,6.06l-10.88-25.57L383.46,175.73z"/>
		</g>
		<polygon style="fill:#B17E6D;" points="380.09,166.71 380.13,176.08 380.37,182.58 381.43,185.25 364.11,186.11 363.53,168.77 		
			"/>
		<path id="XMLID_907_" style="fill:#393B4F;" d="M395.44,184.39c-1.5-4.99-6.52-8.76-10.84-8.69c-1.67,0.03-4.49,0.56-4.49,0.56
			c0.21,1.85-0.17,3.33-3.18,4.34c-3.33,1.12-8.76,0.88-13.04-1.72l-0.03-1c0,0-4.91,0.48-7.61,1c-6,1.16-8.71,3.49-15.56,18.49
			c-2.93,6.41-1.97,15.27,4.62,19.4c-0.96,16.23-1.29,36.68-1.29,36.68s4.45,4.36,25.14,4.83c20.49,0.46,30.15-8.14,30.15-8.14
			c-0.19-4.76-4.84-17.53-10.93-28.23C396.03,204.22,397.66,191.8,395.44,184.39z"/>
		<g>
			<g id="XMLID_900_">
				<path id="XMLID_902_" style="fill:#9A6451;" d="M351.6,150.08c0,0-3.48,5.58-2.99,6.15c0.49,0.57,2.81,1.12,2.81,1.12
					L351.6,150.08z"/>
			</g>
			<g id="XMLID_732_">
				<path id="XMLID_819_" style="fill:#282938;" d="M353.92,145.04c0,0-10.87-6.11-1.65-16.4c6.62-7.4,17.03-6.18,29.45-1.45
					c5.82,2.21,12.84,4.95,12.83,18.5c0,8.91-22.87,16.22-22.48,22.32L353.92,145.04z"/>
			</g>
			<g id="XMLID_720_">
				<path id="XMLID_731_" style="fill:#B17E6D;" d="M362.42,132.81c-3.41,1.76-9.31,5.01-10.85,17.57
					c-1.57,12.9,1.29,17.38,3.05,19.08c1.19,1.14,7.31,1.56,10.51,0.58c4-1.24,12.67-5.5,16.74-12.16
					c4.79-7.83,5.79-18.27,0.28-22.37C374.39,129.74,365.31,131.32,362.42,132.81z"/>
			</g>
			<g id="XMLID_895_">
				<path style="fill:#9A6451;" d="M363.66,170.37c-2.9,0.51-6.86,0.22-8.57-0.6c4.63,0.15,8.31-2.08,8.31-2.08L363.66,170.37z"/>
			</g>
			<path id="XMLID_655_" style="fill:#282938;" d="M362.16,148.03c0,0-6.88-2.32-7.91-10.57c-1.04-8.24,9.31-11.42,9.31-11.42
				L362.16,148.03z"/>
			<path style="fill:#282938;" d="M394.55,144.1c-0.04-1.49-0.38-3.83-0.81-5.26c-1.62-5.31-4.01-7.78-9.27-9.54
				c-14.06-4.7-23.05,4.05-23.05,4.05s-1.65,6.5-1.04,12.9c-0.43-0.12-0.92-0.07-0.92-0.07l-0.16,5.64
				c-0.05,1.71,1.3,3.14,3.01,3.18l0.09-3.19c0.79-1.24,2.69-3.5,5.62-2.52c2.58,0.86,3.56,3.57,2.95,6.07
				c-0.32,1.33-1.04,2.51-2.02,3.46c-1.47,1.42-2.81,1.4-4.72,0.72c-0.17-0.06-0.38-0.04-0.52,0.07c-0.24,0.17-0.18,0.54-0.1,0.82
				c0.56,1.99,1.24,3.87,2.37,5.6c1.54,2.36,2.72,3.29,4.54,4.28c1.96,1.07,8.47,1.08,9.84-0.41c1.85-2.35,5.97-6.38,8.25-9.38
				c2.72-3.59,3.82-6.03,4.63-9.38C393.92,148.36,394.61,146.34,394.55,144.1z"/>
			<path style="fill:#282938;" d="M407.89,184.31L407.89,184.31c-8.51,0-15.41-6.9-15.41-15.41v-31.98l0,0
				c8.51,0,15.41,6.9,15.41,15.41V184.31z"/>
			<path style="fill:#282938;" d="M398.24,133.41l-4.79,4.43c-1.22-1.31-1.15-3.37,0.18-4.6
				C394.95,132.02,397.02,132.1,398.24,133.41z"/>
		</g>
		<g>
			<path style="fill:#B17E6D;" d="M356.24,179.07c-5.57,0.17-11.78,0.13-15.39,5.02c-4.56,6.18-21.82,26.42-21.82,26.42
				s-27.08-9.43-30.56-12.28c-1.57-1.28-1.46-4.52-1.45-6.3c0.02-1.77,0-4.5,0.17-5.64c0.3-1.99-2.44-0.77-3.45,1.43
				c-1.08,2.35-0.9,4.52-1.59,5.26c-0.69,0.74-6.78-3.42-10.43-6.25c-3.65-2.83-5.97-5.28-7.24-3.14c-0.54,0.91,0.57,2.38,3.28,4.89
				c2.71,2.5,3.09,2.76,3.52,3.33c0.26,0.35-0.13,0.64,0.09,1c-0.54,0.28-1.08,0.56-1.53,0.97c-0.45,0.41-0.8,0.96-0.83,1.56
				c-0.04,0.7,0.34,1.42,0.11,2.08c-0.25,0.74-1.17,1.13-1.33,1.9c-0.18,0.86,0.67,1.57,0.89,2.41c0.2,0.77-0.13,1.59,0.06,2.36
				c0.18,0.73,0.78,1.27,1.39,1.69c1.9,1.33,3.88,1.63,6.05,2.15c2.48,0.6,5,0.88,7.48,1.45c2.59,1.37,34.43,20.49,39.52,18.11
				c5.09-2.38,25.97-24.81,25.97-24.81C357.12,194.59,358.95,182.56,356.24,179.07z"/>
			<path style="fill:#3786DE;" d="M357.21,178.95c-3.25-0.27-8.15-0.18-11.04,0.79c-2.89,0.97-5.22,1.31-10.42,8.46
				c-4.44,6.1-15.13,20.26-15.13,20.26s2.46,8.76,12.24,10.9c0,0,13.62-12.54,16.3-15.45c2.68-2.92,5.46-5.53,7.38-11.28
				C358.17,187.74,358.06,183.37,357.21,178.95z"/>
		</g>
	</g>
</g>
</svg>
